<svg xmlns="http://www.w3.org/2000/svg" viewBox="0 0 537.52 354.21"><g id="Camada_2" data-name="Camada 2"><g id="Camada_2-2" data-name="Camada 2"><path d="M537.52,354.15H51.88c-20.9-.47-25,2.29-37.62-6.56,7.78-9.34,12,.86,21,1-17.88-5.09-22-17.76-35.26-26.78,14.09-12.88,20.58-17.93,42.21-24.89Q16.31,283.69,3.8,264.31c14.65-7.18,12.57-16.28,29.44-16.25C24.64,244,19,233.16,10.79,224.48c7.57-9.15,9.5-8.53,24.62-14.66-11.94-5.46-12.1-10.79-20.3-24.3,4.39-4.57,19.67-.88,27.67-1,0,0-2.46-6.54-9.9-18.13,2.87-4.54,24-11.7,31.13-7.67-10.82-12-8.05-6.72-11-21.2,15.39-7,9-.73,25.47-3.55-5.24-9-4.27-37.23-4.27-37.23,7.08.08,30.44,14.66,30.44,14.66,1.3-12.16,5.07-27.75,8.8-36.1,16.73,1.81,12.84,12.16,29.93,24-3-18.93.11-23,8.56-37.93,9,3.73,25.3,8.9,29.66,19,2.25-23.14,2.47-29.47,11.26-43,15.9,9.31,28.44,15.27,35.39,36.07-.84-21-.44-34.82,7-49.7,12.7,6.34,31.44,20.06,39.06,37C270.91,38,264,33.88,275,15.85c17.24,6.65,26.23,8,38.86,29.68C309.47,26.76,317.19,13.72,324.68,0c14.53,13.68,20.38,28.66,21.41,45.54,6-17.37,17.91-32.08,34.7-36.62,5.27,13,10.47,33.24,9.89,59.48,11.49-10.35,17.2-22.74,33.73-30,8,12.52-.14,35.82-.58,53.54,7.8-15.54,18.31-23.62,26.23-30,10.25,7,7.77,25.93,11.45,43.69,11.81-13.06,13.35-5.14,25.93-13,5.43,6.14,5.11,12.15.46,31.11,13.59-2.81,22.93.18,36.4-.46-1.22,11.15-4,22.13-13.47,31a47.85,47.85,0,0,1,26.69-8Z" style="fill:#1a348f"/></g></g></svg>