<svg xmlns="http://www.w3.org/2000/svg" xmlns:xlink="http://www.w3.org/1999/xlink" viewBox="0 0 206.71 844.37"><defs><linearGradient id="Gradiente_sem_nome_125" x1="-1297.31" y1="451.79" x2="-1264.87" y2="451.79" gradientTransform="matrix(-1, 0, 0, 1, -1090.6, 0)" gradientUnits="userSpaceOnUse"><stop offset="0" stop-color="#4964ba"/><stop offset="0.25" stop-color="#455fb7"/><stop offset="0.53" stop-color="#3852ae"/><stop offset="0.82" stop-color="#223c9f"/><stop offset="1" stop-color="#112a93"/></linearGradient><linearGradient id="Gradiente_sem_nome_125-2" x1="-1251.24" y1="449.84" x2="-1233.4" y2="449.84" xlink:href="#Gradiente_sem_nome_125"/><linearGradient id="Gradiente_sem_nome_125-3" x1="-1266.2" y1="423.06" x2="-1255.67" y2="423.06" xlink:href="#Gradiente_sem_nome_125"/><linearGradient id="Gradiente_sem_nome_125-4" x1="-1132.7" y1="380.14" x2="-1132.7" y2="391.62" xlink:href="#Gradiente_sem_nome_125"/><linearGradient id="Gradiente_sem_nome_125-5" x1="-1146.93" y1="331.82" x2="-1133.65" y2="354.81" xlink:href="#Gradiente_sem_nome_125"/></defs><g id="Camada_2" data-name="Camada 2"><g id="Camada_2-2" data-name="Camada 2"><path d="M174.28,457.14l4.89-9.61c8.1-2.51,16.08-4,27.54,2.31-14.5,4.32-23.86,11-32.43,7.3" style="fill:url(#Gradiente_sem_nome_125)"/><path d="M160.64,457.14c-1.55-8.23-6.28-14.39-17.84-20.83.23,13.78,3.17,18.82,12.45,27.07l5.39-6.24" style="fill:url(#Gradiente_sem_nome_125-2)"/><path d="M175.33,432.36c1.43-10.66-3-18.89-9.8-26.12-1.62,15.32,1.22,24.71,5.95,33.64l3.85-7.52" style="fill:url(#Gradiente_sem_nome_125-3)"/><path d="M136.09,475.44c21.14-4.83,40.2-37.43,49.68-71.8l4.65,2.38c-4.42,40.84-24.2,68.88-53.17,97.11l-1.16-27.69" style="fill:#112a93"/><path d="M54.07,391.62l-4.71-7.38c-6.75-4.31-12.42-4.34-19.21-3.94,6.66,9,15.26,9.63,23.92,11.32" style="fill:url(#Gradiente_sem_nome_125-4)"/><path d="M48.23,357.8C53,350,56,341.73,52.59,329.66c-5.53,4.25-10,12.57-10,21.94l5.62,6.2" style="fill:url(#Gradiente_sem_nome_125-5)"/><polyline points="25.35 346.61 0 335.12 31.59 356.38 25.35 346.61" style="fill:#112a93"/><polygon points="74.17 423.14 19.21 336.98 22.68 329.66 73.85 386.01 74.17 423.14" style="fill:#0d207a"/><polygon points="151.91 840.57 116.69 0 69.63 0 76.91 844.37 151.91 840.57" style="fill:#0d207a"/><path d="M74.93,665.55s7-10.17,13.11-30.67c8.39-28-16.6-53-7.12-84.2s-7.35-43.33-7.35-43.33" style="fill:none;stroke:#334aa8;stroke-miterlimit:10"/><path d="M75.81,716.21s20.53-8.27,30.6-41.9c13.78-46-23.55-72.21-8-123.32s-24.84-94.3-24.84-94.3" style="fill:none;stroke:#334aa8;stroke-miterlimit:10"/><path d="M124.46,187.58c-37.21,4.95,4.27,25.1-22.4,74.88-11.28,21.05,32,159.05,32,159.05" style="fill:none;stroke:#334aa8;stroke-miterlimit:10"/><path d="M140.07,555.94l6.41,155s-15.8-35.56-12.56-67.14c3.45-33.46-17.78-29.06-18.85-68-.29-10.67,7-34.22,24.78-24.44Z" style="fill:none;stroke:#334aa8;stroke-miterlimit:10"/><path d="M136.89,482s-52-105.65-52.19-197.36c-.15-77.63,13.58-93.93,9-132.15C88.57,109,70.46,95.94,70.46,95.94" style="fill:none;stroke:#334aa8;stroke-miterlimit:10"/></g></g></svg>