<svg xmlns="http://www.w3.org/2000/svg" xmlns:xlink="http://www.w3.org/1999/xlink" viewBox="0 0 164.21 166.9"><defs><linearGradient id="Gradiente_sem_nome_24" x1="-243.92" y1="1592.31" x2="-207.89" y2="1726.77" gradientTransform="translate(1766.03 -207.4) rotate(73.01)" gradientUnits="userSpaceOnUse"><stop offset="0.36" stop-color="#1c3bb1"/><stop offset="0.55" stop-color="#1b43b9"/><stop offset="0.85" stop-color="#1959ce"/><stop offset="1" stop-color="#1767db"/></linearGradient></defs><g id="Camada_2" data-name="Camada 2"><g id="Camada_2-2" data-name="Camada 2"><path d="M0,.37c16.35,3,20.41,6.28,40.36-.37C28.06,15.13,32.1,15.81,27.59,33.67,43,38.36,44,36,62.41,29,54,36,48,64.29,47,74,63.68,78,75.66,78,93,69.91c-6.62,19.71-20.51,28.28-17.6,44.86,9.06,1.26,23.73-4.47,35.78-6.6,0,0-7.51,26.49-5.62,33.32,0,0,23.32-4.27,30.48-11.79,4.69,16.16,7.15,24.37,18.18,37.2a24.92,24.92,0,0,0,9.48-8.32L164.21.52Z" style="fill:url(#Gradiente_sem_nome_24)"/></g></g></svg>