<svg xmlns="http://www.w3.org/2000/svg" xmlns:xlink="http://www.w3.org/1999/xlink" viewBox="0 0 206.71 844.37"><defs><linearGradient id="Gradiente_sem_nome_125" y1="451.79" x2="32.44" y2="451.79" gradientUnits="userSpaceOnUse"><stop offset="0" stop-color="#4964ba"/><stop offset="0.25" stop-color="#455fb7"/><stop offset="0.53" stop-color="#3852ae"/><stop offset="0.82" stop-color="#223c9f"/><stop offset="1" stop-color="#112a93"/></linearGradient><linearGradient id="Gradiente_sem_nome_125-2" x1="46.07" y1="449.84" x2="63.91" y2="449.84" xlink:href="#Gradiente_sem_nome_125"/><linearGradient id="Gradiente_sem_nome_125-3" x1="31.11" y1="423.06" x2="41.65" y2="423.06" xlink:href="#Gradiente_sem_nome_125"/><linearGradient id="Gradiente_sem_nome_125-4" x1="164.61" y1="380.14" x2="164.61" y2="391.62" xlink:href="#Gradiente_sem_nome_125"/><linearGradient id="Gradiente_sem_nome_125-5" x1="150.38" y1="331.82" x2="163.66" y2="354.81" xlink:href="#Gradiente_sem_nome_125"/></defs><g id="Camada_2" data-name="Camada 2"><g id="Camada_2-2" data-name="Camada 2"><path d="M32.44,457.14l-4.89-9.61c-8.11-2.51-16.09-4-27.55,2.31,14.5,4.32,23.86,11,32.44,7.3" style="fill:url(#Gradiente_sem_nome_125)"/><path d="M46.07,457.14c1.56-8.23,6.29-14.39,17.84-20.83-.22,13.78-3.17,18.82-12.45,27.07l-5.39-6.24" style="fill:url(#Gradiente_sem_nome_125-2)"/><path d="M31.38,432.36c-1.42-10.66,3-18.89,9.81-26.12,1.62,15.32-1.22,24.71-6,33.64l-3.85-7.52" style="fill:url(#Gradiente_sem_nome_125-3)"/><path d="M70.63,475.44C49.48,470.61,30.43,438,21,403.64L16.3,406c4.41,40.84,24.19,68.88,53.17,97.11l1.16-27.69" style="fill:#0d207a"/><path d="M152.65,391.62l4.71-7.38c6.75-4.31,12.41-4.34,19.21-3.94-6.67,9-15.27,9.63-23.92,11.32" style="fill:url(#Gradiente_sem_nome_125-4)"/><path d="M158.48,357.8c-4.77-7.77-7.79-16.07-4.36-28.14,5.54,4.25,10,12.57,10,21.94l-5.63,6.2" style="fill:url(#Gradiente_sem_nome_125-5)"/><polyline points="181.36 346.61 206.72 335.12 175.13 356.38 181.36 346.61" style="fill:#112a93"/><polygon points="132.54 423.14 187.5 336.98 184.03 329.66 132.86 386.01 132.54 423.14" style="fill:#112a93"/><polygon points="54.8 840.57 90.03 0 137.09 0 129.8 844.37 54.8 840.57" style="fill:#0d207a"/><path d="M131.78,665.55s-7-10.17-13.1-30.67c-8.4-28,16.59-53,7.11-84.2s7.36-43.33,7.36-43.33" style="fill:none;stroke:#334aa8;stroke-miterlimit:10"/><path d="M130.91,716.21s-20.53-8.27-30.61-41.9c-13.78-46,23.56-72.21,8-123.32s24.85-94.3,24.85-94.3" style="fill:none;stroke:#334aa8;stroke-miterlimit:10"/><path d="M82.26,187.58c37.21,4.95-4.27,25.1,22.39,74.88,11.28,21.05-32,159.05-32,159.05" style="fill:none;stroke:#334aa8;stroke-miterlimit:10"/><path d="M66.64,555.94l-6.4,155S76,675.34,72.79,643.76c-3.44-33.46,17.78-29.06,18.85-68,.3-10.67-7-34.22-24.78-24.44Z" style="fill:none;stroke:#334aa8;stroke-miterlimit:10"/><path d="M69.83,482s52-105.65,52.18-197.36c.15-77.63-13.58-93.93-9-132.15,5.16-43.49,23.28-56.59,23.28-56.59" style="fill:none;stroke:#334aa8;stroke-miterlimit:10"/></g></g></svg>