<svg xmlns="http://www.w3.org/2000/svg" xmlns:xlink="http://www.w3.org/1999/xlink" viewBox="0 0 1689.26 507.24"><defs><linearGradient id="Gradiente_sem_nome_11" x1="-1.59" y1="272.35" x2="67.75" y2="531.14" gradientTransform="translate(-281.69 10.16) rotate(-45)" gradientUnits="userSpaceOnUse"><stop offset="0.36" stop-color="#1c3bb1"/><stop offset="0.55" stop-color="#1b43b9"/><stop offset="0.85" stop-color="#1959ce"/><stop offset="1" stop-color="#1767db"/></linearGradient><linearGradient id="Gradiente_sem_nome_15" x1="991.78" y1="17.45" x2="1222.01" y2="416.21" gradientTransform="matrix(0.93, 0.37, -0.37, 0.93, 173.5, -360.65)" xlink:href="#Gradiente_sem_nome_11"/><linearGradient id="Gradiente_sem_nome_11-2" x1="583.27" y1="-67.72" x2="813.5" y2="331.05" gradientTransform="matrix(1, 0, 0, 1, 0, 0)" xlink:href="#Gradiente_sem_nome_11"/><linearGradient id="Gradiente_sem_nome_19" x1="1290.93" y1="-61.23" x2="1532.63" y2="357.4" gradientUnits="userSpaceOnUse"><stop offset="0.21" stop-color="#1c3bb1"/><stop offset="0.44" stop-color="#1b43b9"/><stop offset="0.81" stop-color="#1959ce"/><stop offset="1" stop-color="#1767db"/></linearGradient><linearGradient id="Gradiente_sem_nome_11-3" x1="899.26" y1="-61.23" x2="1140.96" y2="357.4" gradientTransform="matrix(1, 0, 0, 1, 0, 0)" xlink:href="#Gradiente_sem_nome_11"/><linearGradient id="Gradiente_sem_nome_3" x1="473.97" x2="473.97" y2="259.99" gradientUnits="userSpaceOnUse"><stop offset="0.16" stop-color="#1c3bb1"/><stop offset="0.4" stop-color="#1b40b6"/><stop offset="0.68" stop-color="#1a4ec3"/><stop offset="0.99" stop-color="#1766da"/><stop offset="1" stop-color="#1767db"/></linearGradient></defs><g id="Camada_2" data-name="Camada 2"><g id="Camada_2-2" data-name="Camada 2"><path d="M0,499.56c7.23,6.06,12.29,7.9,27.67,7.66-4.18-15.07,4.32-26.3-11.91-36.71,24.2,6.79,22-.05,39-7.29C50.14,442.6,51.84,446,33.52,432c17.28,6.86,29.95-1.4,43.48-5.71-5-15.84-4-21-19.28-35.46,19.13,3.76,17.84-.13,35.73-4.54-3.11-15.8-5.64-15.55-20.45-28.56,10.14,4.18,37.88-3.86,47-7.48-4.36-16.62-9.95-27.23-25.25-38.75,20.5-3.41,34.6,4.83,47.86-5.52-3.14-8.59-15.08-18.86-22.63-28.49,0,0,26.92-5.81,32.06-10.69,0,0-14.72-18.58-24.72-21.37,12.06-11.74,18.15-17.76,24.3-33.52-12.18-8.35-22.84-3.35-41.48-.84,7.92-2.07,24.16-17.79,23-23.05-13.4-3.13-28,1.37-28,1.37,5.66-5.66,14.18-18.49,14.14-24.83-15.29-4-21.16-3.14-33.52,1.26,6.58-14.93,9.54-16,8.59-27.87-11.95-.49-17.57.52-26.61,3.56,12.12-11.72,12.51-28.64,18-44-15-3.5-31.74-2.34-50.28,3.36C46.18,80.84,52,61.3,53.11,42.24A160.08,160.08,0,0,0,4.5,59C12.25,42.45,14,34.46,13.09,22.34A117.57,117.57,0,0,0,0,23.86Z" style="fill:url(#Gradiente_sem_nome_11)"/><path d="M916.6,26.93l451.48,179.79c19.12,8.46,24.94,7.35,33.19,20.36-10.76,5.64-14,2.06-22.34-1.55a159.86,159.86,0,0,1,34.61,38c-18,6.49-38.2,8.89-60.84,7,12.55,14.78,20.26,29.73,23,44.86-16.28,1-32,7.34-47.53.85,6.36,7.09,9.51,11.86,13.79,23-10.5,5.54-12.68,3.26-29,3.12,8.92,9.62,12,14.68,14.4,30.3-5.81,2.54-21-.22-28.39-3.18,0,0,9.88,11.6,12.31,25.16-4.39,3.1-25.25-5.61-30.28-12.06,9.68,16.13,18.48,23.95,15.62,38.43-16.91.59-24.85-2.63-40.39-9.07,1.39,10.29-9.86,31.16-9.86,31.16-6.51-2.79-22.49-25.22-22.49-25.22-5.87,10.74-10.58,25.77-17.22,32.05-14.76-8.09-12.76-24.3-24-41.79-4.53,18.62-12.07,27.94-25.61,38.52-6.91-6.92-9.15-16.64-9.32-27.61-11,20.5-18.75,31.73-32,40.83-11.12-14.7-22.08-32.47-20.52-54.35-7.29,19.73-9.3,35.31-21.86,46.2-9.3-10.73-25-33.57-25.52-52.15-5.59,22.35-.74,28.79-17.85,41.21-13.37-12.75-21.18-17.4-24.5-42.32-3.15,19-15.28,28.1-27.47,37.9-8.17-18.21-7.82-34.28-2.3-50.27-12.17,13.76-28.84,22.76-46.09,20.52.11-14,3.08-34.72,13.68-58.73-14.58,5.15-24.6,14.41-42.67,14.8-2.59-14.63,13.87-33,21.07-49.22-13.16,11.36-26,14.79-35.74,17.66-6.78-10.39,2.77-26.92,6.18-44.74-15.91,7.54-14.3-.37-28.95,2.11-2.65-7.75-.05-13.18,11.51-28.9-13.63-2.62-21.1-9-33.79-13.54,5.41-9.84,12.15-18.92,24.33-23.48-21.62,4.48-39.12-7.73-39.13-11,2.3-5.09,17.74-20,21.38-21.86-10.89.73-13.78-6.15-24.57-11,2-11.58,40.22-53.58,42.76-47.32Z" style="fill:url(#Gradiente_sem_nome_15)"/><path d="M425.26,0h486c20.89.78,25.89-2.41,38.37,6.63-7.91,9.22-12.29,7.11-21.33,6.83A159.82,159.82,0,0,1,974.48,36c-14.27,12.67-32.19,22.39-53.92,29,17.13,9.08,29.82,20.12,37.92,33.18-14.75,7-27,18.65-43.85,18.37,8.54,4.24,13.23,7.5,21.34,16.3-7.71,9-10.58,7.72-25.78,13.63,11.85,5.63,16.59,9.18,24.59,22.81-4.46,4.51-19.55,7.56-27.55,7.56,0,0,13.47,7.12,20.74,18.81-2.93,4.5-25.53,4.14-32.6,0,15,11.41,26,15.41,28.74,29.93-15.49,6.8-24.06,6.75-40.88,6.52,5.1,9,2.37,32.59,2.37,32.59-7.09-.19-30.23-15.11-30.23-15.11-1.48,12.15-.29,27.85-4.14,36.15-16.7-2.06-20.85-17.86-37.76-29.94,2.68,19-.87,30.41-9.54,45.25-9-3.87-14.66-12.07-18.87-22.2-2.59,23.1-5.69,36.42-14.67,49.78-15.76-9.53-32.52-22-39.16-42.89.52,21,4.42,36.24-3.22,51-12.61-6.53-35.64-21.95-43-39,3.08,22.82,10,27-1.33,44.89-17.14-6.91-26.12-8.33-38.42-30.25,4.11,18.83-3.8,31.76-11.5,45.37-14.32-13.9-20-29-20.73-45.85-6.22,17.28-18.38,31.81-35.23,36.11-5.09-13.07-10-33.4-9-59.62-11.64,10.18-17.53,22.49-34.17,29.53-7.82-12.63.67-35.8,1.37-53.52-8,15.43-18.66,23.35-26.67,29.63-10.15-7.14-7.39-26-10.81-43.85-12,12.89-13.42,5-26.12,12.67-5.33-6.22-4.92-12.22,0-31.11-13.63,2.61-22.92-.52-36.4-.08,1.38-11.14,4.29-22.07,13.92-30.81-18.43,12.16-39.2,7.29-40.44,4.22.25-5.59,9.07-25.18,11.78-28.22-9.86,4.71-15.08-.61-26.89-1.11-2.45-11.49,17.54-64.66,22.22-59.78Z" style="fill:url(#Gradiente_sem_nome_11-2)"/><path d="M1142.12,0h486.7c19.85,2.63,31.7,8.56,46.22,21.3-7.91,9.22-14.82,13.63-32,19.85a160.07,160.07,0,0,1,46.22,22.52c-14.27,12.67-32.19,22.39-53.92,29,17.13,9.09,29.82,20.13,37.92,33.19-14.76,7-27,18.65-43.85,18.37,8.54,4.24,13.23,7.5,21.33,16.3-7.7,9-10.57,7.72-25.77,13.63,11.85,5.62,16.59,9.18,24.59,22.81-4.46,4.51-19.56,7.56-27.56,7.56,0,0,13.48,7.11,20.74,18.81-2.92,4.5-25.52,4.13-32.59,0,15,11.41,26,15.41,28.74,29.93-15.5,6.79-24.06,6.74-40.89,6.51,5.1,9.05,2.37,32.6,2.37,32.6-7.08-.19-30.22-15.11-30.22-15.11-1.48,12.14-.3,27.85-4.15,36.14-16.7-2.05-20.84-17.85-37.75-29.94,2.68,19-.87,30.42-9.54,45.25-9-3.86-14.66-12.06-18.87-22.19-2.6,23.1-5.69,36.41-14.67,49.78-15.77-9.53-32.52-22-39.17-42.9.53,21,4.42,36.25-3.21,51-12.61-6.52-35.64-21.94-43-39,3.08,22.83,10,27-1.33,44.89-17.15-6.9-26.12-8.33-38.43-30.24,4.12,18.83-3.79,31.75-11.49,45.37-14.33-13.9-20-29-20.73-45.86-6.22,17.28-18.38,31.82-35.23,36.11-5.09-13.06-10-33.39-9-59.61-11.64,10.18-17.53,22.48-34.17,29.53-7.82-12.63.67-35.8,1.36-53.52-8,15.42-18.65,23.35-26.66,29.63-10.15-7.14-7.39-26-10.81-43.85-12,12.89-13.43,4.95-26.12,12.67-5.33-6.23-4.93-12.23,0-31.12-13.64,2.61-22.92-.52-36.41-.07,1.39-11.14,4.3-22.07,13.93-30.81-18.44,12.16-39.21,7.29-40.45,4.22.26-5.59,9.07-25.18,11.78-28.22-9.85,4.71-15.08-.61-26.89-1.12-2.44-11.49,17.54-64.65,22.23-59.77Z" style="fill:url(#Gradiente_sem_nome_19)"/><path d="M750.45,0h486.7c19.85,2.63,31.7,8.56,46.22,21.3-7.91,9.22-14.81,13.63-32,19.85a159.82,159.82,0,0,1,46.22,22.52c-14.27,12.67-32.19,22.39-53.92,29,17.13,9.09,29.82,20.13,37.92,33.19-14.75,7-27,18.65-43.85,18.37,8.54,4.24,13.23,7.5,21.34,16.3-7.71,9-10.58,7.72-25.78,13.63,11.85,5.62,16.59,9.18,24.59,22.81-4.46,4.51-19.56,7.56-27.56,7.56,0,0,13.48,7.11,20.75,18.81-2.93,4.5-25.53,4.13-32.6,0,15,11.41,26,15.41,28.74,29.93-15.49,6.79-24.06,6.74-40.89,6.51,5.1,9.05,2.38,32.6,2.38,32.6-7.09-.19-30.23-15.11-30.23-15.11-1.48,12.14-.29,27.85-4.15,36.14-16.7-2.05-20.84-17.85-37.75-29.94,2.68,19-.87,30.42-9.54,45.25-9-3.86-14.66-12.06-18.87-22.19-2.59,23.1-5.69,36.41-14.67,49.78-15.77-9.53-32.52-22-39.17-42.9.53,21,4.43,36.25-3.21,51-12.61-6.52-35.64-21.94-43-39,3.08,22.83,10,27-1.33,44.89-17.14-6.9-26.12-8.33-38.42-30.24,4.11,18.83-3.8,31.75-11.5,45.37-14.32-13.9-20-29-20.73-45.86-6.22,17.28-18.38,31.82-35.23,36.11-5.09-13.06-10-33.39-9-59.61-11.64,10.18-17.53,22.48-34.17,29.53-7.82-12.63.67-35.8,1.37-53.52-8,15.42-18.66,23.35-26.67,29.63-10.15-7.14-7.39-26-10.81-43.85-12,12.89-13.42,4.95-26.12,12.67-5.33-6.23-4.92-12.23,0-31.12-13.63,2.61-22.92-.52-36.4-.07,1.38-11.14,4.29-22.07,13.92-30.81-18.43,12.16-39.2,7.29-40.44,4.22.25-5.59,9.06-25.18,11.77-28.22-9.85,4.71-15.07-.61-26.88-1.12C715,192,735,138.79,739.67,143.67Z" style="fill:url(#Gradiente_sem_nome_11-3)"/><path d="M.26,357.77c7.33-10.5,10-23.82,9.5-39.11,6.12,12.8,15.33,21.86,30.24,24,9.76-8.34,11.68-24.18,8.79-44.64,3.85,18.25,4.44,32.45,16.81,46,6.65-13.13,18.29-26.35,16.44-40.44,2.59,18,12.73,30.25,28.45,38.22,7.48-14.8,10.1-29.42,5-43.75,7.16,19.84,20.44,22.68,42.14,34.65,3.91-19.23,6.42-26.43,0-45.12,8.78,13.54,18.53,23,30.22,24.21,9.1-14.34,15.9-31.71,11-50.44,18.37,17.34,17,25.63,24,36.3,8.33-7.12,28.16-18.86,29.85-32.3,6.05,18.88-3.9,34.44,13.47,46.44,16.82-7.55,27.29-18.68,31.94-33.1.4,17,5.13,30.58,15,40,15.38-6.48,24.84-18.66,31.25-33.78,3.33,19.33,11.43,32.05,24.89,37.33,18.72-12.68,19.05-40.94,19.22-69.33,2.29,16,9.34,29.09,19.89,40,13.87-12.48,15.78-29.77,11.56-51.56,9.94,22.12,25.69,35.12,46,40.89,8.41-14.2,10.63-29.06,8-44.44,9.85,14.34,22.54,24.87,38.42,31.11l4.45-36.44c15,12.8,26.9,17,46.22,15.64,7.63-7.5,8.71-19.16,7.11-32.53,9.05,11.24,23.62,19.14,41.78,24.89,11.37-11.43,13.91-27.88,11.55-47.12,7.92,14.84,17.73,26.81,32,32,7.14-13,1.53-32.39-6.85-53.13,11.87,13.71,23.83,25.36,36.19,26.47,3.8-9.45,5.43-22.19,4.66-39.56,8.26,15.69,18.08,28.63,33.56,31.56,10.88-14.43,9.83-28,14.82-42.67,12.28,23.19,26.69,38.34,37.62,47.11,12.45-12.15,15.71-30.81,12.45-48.89,9.13,14.24,21.53,24.47,40.89,29.34-.15-15.64.24-30.79-12.74-45,21.62,12.82,42.44,18.75,60.74,16.15.85-21.12-6.58-36-20.67-54.22,14.92,11.09,29.6,18.43,43.78,17.77-.77-16.6-5.92-34.06-16.89-52C899.14,73,914,81.62,932.46,82c1.09-16.07-2.89-29.15-12.2-50.44C929,38.21,938,42.47,947.71,41.32c.08-17.17-5.79-26.23-17.6-41.32H.22Z" style="fill:url(#Gradiente_sem_nome_3)"/></g></g></svg>