<svg xmlns="http://www.w3.org/2000/svg" xmlns:xlink="http://www.w3.org/1999/xlink" viewBox="0 0 233.5 157.16"><defs><linearGradient id="Gradiente_sem_nome_61" x1="51.19" y1="141.77" x2="141.01" y2="-13.81" gradientUnits="userSpaceOnUse"><stop offset="0" stop-color="#1c3bb1"/><stop offset="1" stop-color="#1767db"/></linearGradient><linearGradient id="Gradiente_sem_nome_174" x1="90.53" y1="144.03" x2="96.17" y2="134.28" gradientUnits="userSpaceOnUse"><stop offset="0" stop-color="#7871ff"/><stop offset="1" stop-color="#9f9fff"/></linearGradient><linearGradient id="Gradiente_sem_nome_174-2" x1="73.9" y1="145.42" x2="114.07" y2="75.84" xlink:href="#Gradiente_sem_nome_174"/><linearGradient id="Gradiente_sem_nome_174-3" x1="83.71" y1="140.09" x2="113.64" y2="88.25" xlink:href="#Gradiente_sem_nome_174"/><linearGradient id="Gradiente_sem_nome_174-4" x1="94.22" y1="146.16" x2="109.43" y2="119.83" xlink:href="#Gradiente_sem_nome_174"/></defs><g id="Camada_2" data-name="Camada 2"><g id="Camada_4" data-name="Camada 4"><path d="M78.21,143.83C70.56,75.67,98.23,30.37,146.42.14c7.61,34.31,5.26,58.65-10.23,86.3-17.28,21.52-34.56,43-40.64,55.05,34.13-58.08,85.9-95.14,137.62-102.09C217,93.21,175.44,129.64,120.9,157.16l-49.85-3.93C26.39,123.91,11.94,67.65,0,9.17c33.42,24.61,53.19,46.74,77.55,98.48-1.86,13.56-.46,21.55.66,36.18" style="fill:url(#Gradiente_sem_nome_61)"/><path d="M116.58,143.83C149,116.53,189.89,78.54,233.17,39.4" style="fill:none;stroke:#6490ff;stroke-miterlimit:10"/><path d="M150.35,114.43c2.47-18.78,4.67-32.17,10-45" style="fill:none;stroke:#6490ff;stroke-miterlimit:10"/><path d="M161.76,104.21c14.63-1.76,27.73-5.11,42.39-10.22" style="fill:none;stroke:#6490ff;stroke-miterlimit:10"/><path d="M181.4,86.44c3.18-15.7,9.38-28.51,17.06-37.89" style="fill:none;stroke:#6490ff;stroke-miterlimit:10"/><path d="M122.45,138.77a116.9,116.9,0,0,0,42.17-7.9" style="fill:none;stroke:#6490ff;stroke-miterlimit:10"/><path d="M195,74.12c7.37-1.75,24.78-7.42,30.43-14.14" style="fill:none;stroke:#6490ff;stroke-miterlimit:10"/><path d="M131.27,130.87c-.16-21.71,1.77-31.77,4.74-41.2" style="fill:none;stroke:#6490ff;stroke-miterlimit:10"/><path d="M87,145.93c15.53-48,42.66-90.54,59.38-145.79" style="fill:none;stroke:#6490ff;stroke-miterlimit:10"/><path d="M104,102.77C122.55,95.1,132.61,87,138.74,81.53" style="fill:none;stroke:#6490ff;stroke-miterlimit:10"/><path d="M117.36,73.58c15.22-7.4,23.17-16.72,32.13-26.93" style="fill:none;stroke:#6490ff;stroke-miterlimit:10"/><path d="M111.27,86.05c-4.2-20.55-5.58-37.78-4-52.27" style="fill:none;stroke:#6490ff;stroke-miterlimit:10"/><path d="M127.37,51.43c-.67-14.45-.43-29,3.43-40.5" style="fill:none;stroke:#6490ff;stroke-miterlimit:10"/><path d="M100.13,111.58c-5.39-17.21-11-30.3-10.86-49.62" style="fill:none;stroke:#6490ff;stroke-miterlimit:10"/><line x1="68.01" y1="130.87" x2="33.42" y2="112.49" style="fill:none;stroke:#6490ff;stroke-miterlimit:10"/><path d="M62.38,114.94a88.3,88.3,0,0,0,3.8-29.89" style="fill:none;stroke:#6490ff;stroke-miterlimit:10"/><path d="M73,153.39c-4.16-39.24-42.1-109-71.72-143.48" style="fill:none;stroke:#6490ff;stroke-miterlimit:10"/><path d="M50,87.23c1.73-8.46,1.79-16.12,1-26.63" style="fill:none;stroke:#6490ff;stroke-miterlimit:10"/><path d="M35.11,58.78C33.64,48.36,29,37.94,22.42,27.52" style="fill:none;stroke:#6490ff;stroke-miterlimit:10"/><path d="M57.3,102.77c-14-2.64-28.78-15.4-39.73-25.31" style="fill:none;stroke:#6490ff;stroke-miterlimit:10"/><path d="M41,70.13c-11.87-4.87-24.15-15.49-33-25" style="fill:none;stroke:#6490ff;stroke-miterlimit:10"/><path d="M94.41,146.27A55.11,55.11,0,0,0,92.29,132,62.76,62.76,0,0,1,94.41,146.27Z" style="fill:url(#Gradiente_sem_nome_174)"/><path d="M140,90.79c-10.77,9.48-21.33,19.38-29.78,29.48h0c-9.24,11.44-11.76,16.13-15.78,26A62.76,62.76,0,0,0,92.29,132a71.7,71.7,0,0,0-5.51-13.66C80.36,106.59,70,96.14,56.25,86.87c-1.52,27.1,3.85,49.78,24.6,62.56L122,146.27C137.34,131.9,141.9,112.69,140,90.79Z" style="fill:url(#Gradiente_sem_nome_174-2)"/><path d="M94.41,146.27c3-8.72,8.61-17.43,15.78-26,2-10.74,4.1-27.16-4.48-36.6C94,93.79,87,105.13,86.67,118.15c0,.08.07.16.11.23A62.64,62.64,0,0,1,92.29,132,55.11,55.11,0,0,1,94.41,146.27Z" style="fill:url(#Gradiente_sem_nome_174-3)"/><path d="M110.19,120.27h0c-7.17,8.57-12.82,17.28-15.78,26C98.43,136.4,101,131.71,110.19,120.27Z" style="fill:url(#Gradiente_sem_nome_174-4)"/><line x1="116.85" y1="134.41" x2="134.42" y2="129.32" style="fill:none;stroke:#9f9fff;stroke-miterlimit:10"/><line x1="122.84" y1="124.82" x2="119.87" y2="109.63" style="fill:none;stroke:#9f9fff;stroke-miterlimit:10"/><path d="M135.08,102.1a20.32,20.32,0,0,0,5.3-5.53" style="fill:none;stroke:#9f9fff;stroke-miterlimit:10"/><path d="M128.51,115c-1.36-5.38-1.4-9.38-.12-13.68" style="fill:none;stroke:#9f9fff;stroke-miterlimit:10"/><path d="M122.84,124.82c5.52-2.78,11.11-4.52,16-9.09" style="fill:none;stroke:#9f9fff;stroke-miterlimit:10"/><path d="M114.37,138.15c-1.38-8.83-1.83-13.48-1.67-20.8" style="fill:none;stroke:#9f9fff;stroke-miterlimit:10"/><path d="M140,90.79c-7.83,20.13-21.19,41.72-32.06,56.56l-2.2-21.43" style="fill:none;stroke:#9f9fff;stroke-miterlimit:10"/><path d="M97.76,127.75a83.35,83.35,0,0,0,14.16-22" style="fill:none;stroke:#9f9fff;stroke-miterlimit:10"/><line x1="103.02" y1="98.61" x2="99.75" y2="89.37" style="fill:none;stroke:#9f9fff;stroke-miterlimit:10"/><line x1="100.95" y1="110.04" x2="111.12" y2="94.97" style="fill:none;stroke:#9f9fff;stroke-miterlimit:10"/><line x1="98.88" y1="121.52" x2="89.84" y2="103.99" style="fill:none;stroke:#9f9fff;stroke-miterlimit:10"/><line x1="105.71" y1="83.67" x2="94.41" y2="146.27" style="fill:none;stroke:#9f9fff;stroke-miterlimit:10"/><path d="M77.41,130.12a94.53,94.53,0,0,0-.73-25.88" style="fill:none;stroke:#9f9fff;stroke-miterlimit:10"/><line x1="68.49" y1="113.46" x2="66.52" y2="94.54" style="fill:none;stroke:#9f9fff;stroke-miterlimit:10"/><line x1="76.75" y1="128.84" x2="58.47" y2="117.72" style="fill:none;stroke:#9f9fff;stroke-miterlimit:10"/><path d="M84.26,141.62c.95-10.08,1.19-19.48,0-27.51" style="fill:none;stroke:#9f9fff;stroke-miterlimit:10"/><path d="M70.17,116.73c-6.11-4-10.34-6.8-13.92-15.18" style="fill:none;stroke:#9f9fff;stroke-miterlimit:10"/><path d="M56.25,86.87A417.72,417.72,0,0,0,86.5,145.53" style="fill:none;stroke:#9f9fff;stroke-miterlimit:10"/></g></g></svg>