<svg xmlns="http://www.w3.org/2000/svg" xmlns:xlink="http://www.w3.org/1999/xlink" viewBox="0 0 396.56 206.74"><defs><linearGradient id="Gradiente_sem_nome_61" x1="162.18" y1="182.29" x2="277.7" y2="-17.8" gradientUnits="userSpaceOnUse"><stop offset="0" stop-color="#1c3bb1"/><stop offset="1" stop-color="#1767db"/></linearGradient><linearGradient id="Gradiente_sem_nome_59" x1="97.59" y1="196.44" x2="97.59" y2="65.46" gradientUnits="userSpaceOnUse"><stop offset="0.01" stop-color="#1c3bb1"/><stop offset="1" stop-color="#1767db"/></linearGradient><linearGradient id="Gradiente_sem_nome_174" x1="445.71" y1="191.08" x2="506.75" y2="85.37" gradientTransform="matrix(-1, 0, 0, 1, 607.16, 0)" gradientUnits="userSpaceOnUse"><stop offset="0" stop-color="#7871ff"/><stop offset="1" stop-color="#9f9fff"/></linearGradient><linearGradient id="Gradiente_sem_nome_174-2" x1="389.29" y1="173.33" x2="432.47" y2="98.53" xlink:href="#Gradiente_sem_nome_174"/></defs><g id="Camada_2" data-name="Camada 2"><g id="Camada_4" data-name="Camada 4"><path d="M196.93,184.94C187.09,97.28,222.68,39,284.65.14c9.79,44.13,6.77,75.43-13.15,111-22.22,27.67-44.44,55.35-52.27,70.79,43.9-74.69,110.48-122.35,177-131.29C375.41,119.84,322,166.69,251.84,202.08L187.72,197C130.28,159.32,111.71,87,96.35,11.76c43,31.64,68.4,60.11,99.73,126.65-2.39,17.43-.59,27.72.85,46.53" style="fill:url(#Gradiente_sem_nome_61)"/><path d="M246.28,184.94C288,149.83,340.57,101,396.22,50.63" style="fill:none;stroke:#6490ff;stroke-miterlimit:10"/><path d="M289.71,147.13c3.18-24.16,6-41.37,12.88-57.93" style="fill:none;stroke:#6490ff;stroke-miterlimit:10"/><path d="M304.38,134c18.83-2.27,35.68-6.57,54.53-13.14" style="fill:none;stroke:#6490ff;stroke-miterlimit:10"/><path d="M329.65,111.13c4.09-20.19,12.06-36.66,21.94-48.73" style="fill:none;stroke:#6490ff;stroke-miterlimit:10"/><path d="M253.84,178.44a150.88,150.88,0,0,0,54.23-10.17" style="fill:none;stroke:#6490ff;stroke-miterlimit:10"/><path d="M347.07,95.29c9.48-2.26,31.87-9.55,39.14-18.19" style="fill:none;stroke:#6490ff;stroke-miterlimit:10"/><path d="M265.17,168.27c-.21-27.92,2.29-40.86,6.1-53" style="fill:none;stroke:#6490ff;stroke-miterlimit:10"/><path d="M208.29,187.65c20-61.76,54.86-116.45,76.36-187.51" style="fill:none;stroke:#6490ff;stroke-miterlimit:10"/><path d="M230.06,132.14c23.9-9.88,36.83-20.36,44.72-27.32" style="fill:none;stroke:#6490ff;stroke-miterlimit:10"/><path d="M247.28,94.59c19.57-9.51,29.8-21.5,41.33-34.63" style="fill:none;stroke:#6490ff;stroke-miterlimit:10"/><path d="M239.45,110.62C234.05,84.2,232.28,62,234.3,43.4" style="fill:none;stroke:#6490ff;stroke-miterlimit:10"/><path d="M260.16,66.11c-.86-18.59-.55-37.36,4.4-52.1" style="fill:none;stroke:#6490ff;stroke-miterlimit:10"/><path d="M225.12,143.46c-6.92-22.13-14.1-39-14-63.81" style="fill:none;stroke:#6490ff;stroke-miterlimit:10"/><line x1="183.81" y1="168.27" x2="139.32" y2="144.64" style="fill:none;stroke:#6490ff;stroke-miterlimit:10"/><path d="M176.57,147.78a113.39,113.39,0,0,0,4.89-38.43" style="fill:none;stroke:#6490ff;stroke-miterlimit:10"/><path d="M190.21,197.23C184.87,146.77,136.07,57,98,12.7" style="fill:none;stroke:#6490ff;stroke-miterlimit:10"/><path d="M160.63,112.14c2.22-10.88,2.29-20.73,1.27-34.25" style="fill:none;stroke:#6490ff;stroke-miterlimit:10"/><path d="M141.5,75.55c-1.88-13.4-7.83-26.8-16.32-40.2" style="fill:none;stroke:#6490ff;stroke-miterlimit:10"/><path d="M170,132.14c-18-3.41-37-19.81-51.09-32.56" style="fill:none;stroke:#6490ff;stroke-miterlimit:10"/><path d="M149.09,90.16C133.82,83.89,118,70.23,106.66,58" style="fill:none;stroke:#6490ff;stroke-miterlimit:10"/><path d="M129.6,185.32C136,128.46,112.9,90.67,72.7,65.46c-6.35,28.62-4.39,48.92,8.53,72,14.42,18,28.83,35.9,33.91,45.92C86.66,134.92,43.48,104,.34,98.2c13.5,44.9,48.15,75.28,93.65,98.24l41.58-3.27c37.26-24.47,49.31-71.4,59.27-120.18-27.87,20.53-44.37,39-64.69,82.15,1.56,11.31.38,18-.55,30.18" style="fill:url(#Gradiente_sem_nome_59)"/><path d="M97.59,185.32C70.56,162.55,36.44,130.85.34,98.2" style="fill:none;stroke:#6490ff;stroke-miterlimit:10"/><path d="M69.42,160.8c-2.06-15.67-3.89-26.84-8.35-37.58" style="fill:none;stroke:#6490ff;stroke-miterlimit:10"/><path d="M59.91,152.27a163.42,163.42,0,0,1-35.37-8.52" style="fill:none;stroke:#6490ff;stroke-miterlimit:10"/><path d="M43.52,137.45c-2.66-13.1-7.82-23.78-14.23-31.61" style="fill:none;stroke:#6490ff;stroke-miterlimit:10"/><path d="M92.69,181.1a97.87,97.87,0,0,1-35.18-6.59" style="fill:none;stroke:#6490ff;stroke-miterlimit:10"/><path d="M32.21,127.17c-6.14-1.46-20.67-6.19-25.38-11.8" style="fill:none;stroke:#6490ff;stroke-miterlimit:10"/><path d="M85.34,174.51c.13-18.11-1.48-26.5-4-34.37" style="fill:none;stroke:#6490ff;stroke-miterlimit:10"/><path d="M122.23,187.08C109.28,147,86.65,111.54,72.7,65.46" style="fill:none;stroke:#6490ff;stroke-miterlimit:10"/><path d="M108.11,151.07c-15.5-6.4-23.89-13.2-29-17.72" style="fill:none;stroke:#6490ff;stroke-miterlimit:10"/><path d="M96.94,126.72c-12.69-6.17-19.32-14-26.8-22.46" style="fill:none;stroke:#6490ff;stroke-miterlimit:10"/><path d="M102,137.12c3.5-17.14,4.66-31.52,3.34-43.6" style="fill:none;stroke:#6490ff;stroke-miterlimit:10"/><path d="M88.59,108.24C89.15,96.18,89,84,85.73,74.45" style="fill:none;stroke:#6490ff;stroke-miterlimit:10"/><path d="M111.32,158.42c4.49-14.36,9.14-25.28,9.05-41.39" style="fill:none;stroke:#6490ff;stroke-miterlimit:10"/><line x1="138.11" y1="174.51" x2="166.97" y2="159.18" style="fill:none;stroke:#6490ff;stroke-miterlimit:10"/><path d="M142.8,161.22a73.7,73.7,0,0,1-3.16-24.93" style="fill:none;stroke:#6490ff;stroke-miterlimit:10"/><path d="M134,193.29c3.46-32.72,35.12-90.94,59.82-119.69" style="fill:none;stroke:#6490ff;stroke-miterlimit:10"/><path d="M153.15,138.1c-1.44-7-1.49-13.44-.82-22.21" style="fill:none;stroke:#6490ff;stroke-miterlimit:10"/><path d="M165.55,114.37c1.23-8.69,5.08-17.39,10.59-26.08" style="fill:none;stroke:#6490ff;stroke-miterlimit:10"/><path d="M147.05,151.07c11.68-2.21,24-12.85,33.13-21.11" style="fill:none;stroke:#6490ff;stroke-miterlimit:10"/><path d="M160.63,123.84c9.91-4.06,20.14-12.93,27.52-20.86" style="fill:none;stroke:#6490ff;stroke-miterlimit:10"/><path d="M158.64,192.71c-3.2-73.56-21.27-99.7-37.88-119.09-9.61,19.39-3.05,85.06,11.36,119.09" style="fill:url(#Gradiente_sem_nome_174)"/><path d="M156.15,161.87c15.22-39.55,37.92-73.53,76.41-96.75-6.48,54-26.83,106.28-58.53,131.51l-14,10.11Z" style="fill:url(#Gradiente_sem_nome_174-2)"/><line x1="209.31" y1="108.94" x2="212.75" y2="79.09" style="fill:none;stroke:#9f9fff;stroke-miterlimit:10"/><line x1="201.54" y1="123.61" x2="226.22" y2="100.58" style="fill:none;stroke:#9f9fff;stroke-miterlimit:10"/><line x1="186.89" y1="151.23" x2="185.45" y2="107.61" style="fill:none;stroke:#9f9fff;stroke-miterlimit:10"/><line x1="205.43" y1="156.96" x2="176.27" y2="171.25" style="fill:none;stroke:#9f9fff;stroke-miterlimit:10"/><line x1="232.56" y1="65.12" x2="164.89" y2="192.71" style="fill:none;stroke:#9f9fff;stroke-miterlimit:10"/><line x1="143.25" y1="175.21" x2="121.26" y2="154.39" style="fill:none;stroke:#9f9fff;stroke-miterlimit:10"/><line x1="135.86" y1="147.44" x2="142.26" y2="106.87" style="fill:none;stroke:#9f9fff;stroke-miterlimit:10"/><line x1="128.92" y1="117.74" x2="129.84" y2="85.08" style="fill:none;stroke:#9f9fff;stroke-miterlimit:10"/><line x1="137.1" y1="152.35" x2="117.42" y2="127.47" style="fill:none;stroke:#9f9fff;stroke-miterlimit:10"/><line x1="144.47" y1="179.55" x2="151.2" y2="133.92" style="fill:none;stroke:#9f9fff;stroke-miterlimit:10"/><path d="M120.76,73.62c6.91,45.11,17.78,86,27.51,119.09" style="fill:none;stroke:#9f9fff;stroke-miterlimit:10"/></g></g></svg>