<svg xmlns="http://www.w3.org/2000/svg" xmlns:xlink="http://www.w3.org/1999/xlink" viewBox="0 0 138.98 93.51"><defs><linearGradient id="Gradiente_sem_nome_61" x1="69.32" y1="93.51" x2="69.32" y2="0.14" gradientTransform="matrix(-1, 0, 0, 1, 138.65, 0)" gradientUnits="userSpaceOnUse"><stop offset="0" stop-color="#1c3bb1"/><stop offset="1" stop-color="#1767db"/></linearGradient></defs><g id="Camada_2" data-name="Camada 2"><g id="Camada_4" data-name="Camada 4"><path d="M46.51,85.59C42,45.06,58.41,18.12,87.06.14,91.59,20.55,90.19,35,81,51.46,70.71,64.25,60.43,77.05,56.82,84.19c20.29-34.53,51.08-56.57,81.83-60.7-9.63,32-34.33,53.66-66.76,70L42.25,91.18C15.69,73.74,7.1,40.29,0,5.51c19.87,14.64,31.63,27.8,46.11,58.56-1.1,8.06-.27,12.82.4,21.52" style="fill:url(#Gradiente_sem_nome_61)"/><path d="M69.32,85.59c19.27-16.24,43.6-38.83,69.33-62.1" style="fill:none;stroke:#6490ff;stroke-miterlimit:10"/><path d="M89.4,68.1c1.47-11.16,2.78-19.12,6-26.78" style="fill:none;stroke:#6490ff;stroke-miterlimit:10"/><path d="M96.19,62A116.5,116.5,0,0,0,121.4,56" style="fill:none;stroke:#6490ff;stroke-miterlimit:10"/><path d="M107.87,51.46A51.53,51.53,0,0,1,118,28.93" style="fill:none;stroke:#6490ff;stroke-miterlimit:10"/><path d="M72.82,82.58a69.72,69.72,0,0,0,25.07-4.7" style="fill:none;stroke:#6490ff;stroke-miterlimit:10"/><path d="M115.92,44.13c4.39-1,14.74-4.41,18.1-8.41" style="fill:none;stroke:#6490ff;stroke-miterlimit:10"/><path d="M78.06,77.88C78,65,79.11,59,80.88,53.38" style="fill:none;stroke:#6490ff;stroke-miterlimit:10"/><path d="M51.76,86.84C61,58.28,77.12,33,87.06.14" style="fill:none;stroke:#6490ff;stroke-miterlimit:10"/><path d="M61.82,61.17A69.29,69.29,0,0,0,82.5,48.54" style="fill:none;stroke:#6490ff;stroke-miterlimit:10"/><path d="M69.79,43.81c9-4.4,13.77-9.94,19.1-16" style="fill:none;stroke:#6490ff;stroke-miterlimit:10"/><path d="M66.16,51.22C63.67,39,62.85,28.76,63.78,20.15" style="fill:none;stroke:#6490ff;stroke-miterlimit:10"/><path d="M75.74,30.64c-.4-8.59-.26-17.27,2-24.08" style="fill:none;stroke:#6490ff;stroke-miterlimit:10"/><path d="M59.54,66.41c-3.2-10.23-6.52-18-6.45-29.51" style="fill:none;stroke:#6490ff;stroke-miterlimit:10"/><line x1="40.44" y1="77.88" x2="19.87" y2="66.95" style="fill:none;stroke:#6490ff;stroke-miterlimit:10"/><path d="M37.09,68.41a52.52,52.52,0,0,0,2.26-17.78" style="fill:none;stroke:#6490ff;stroke-miterlimit:10"/><path d="M43.4,91.27C40.93,67.94,18.37,26.44.76,6" style="fill:none;stroke:#6490ff;stroke-miterlimit:10"/><path d="M29.72,51.93c1-5,1.06-9.59.59-15.84" style="fill:none;stroke:#6490ff;stroke-miterlimit:10"/><path d="M20.88,35c-.87-6.2-3.62-12.39-7.55-18.59" style="fill:none;stroke:#6490ff;stroke-miterlimit:10"/><path d="M34.07,61.17C25.74,59.6,17,52,10.45,46.12" style="fill:none;stroke:#6490ff;stroke-miterlimit:10"/><path d="M24.38,41.76c-7-2.89-14.35-9.21-19.61-14.87" style="fill:none;stroke:#6490ff;stroke-miterlimit:10"/></g></g></svg>