<svg xmlns="http://www.w3.org/2000/svg" xmlns:xlink="http://www.w3.org/1999/xlink" viewBox="0 0 719.82 519.57"><defs><linearGradient id="Gradiente_sem_nome_7" x1="1450.14" y1="-87.12" x2="1775.93" y2="477.17" gradientTransform="matrix(-1, 0, 0, 1, 1979.13, 0)" gradientUnits="userSpaceOnUse"><stop offset="0.36" stop-color="#1c3bb1"/><stop offset="0.55" stop-color="#1b43b9"/><stop offset="0.85" stop-color="#1959ce"/><stop offset="1" stop-color="#1767db"/></linearGradient></defs><g id="Camada_2" data-name="Camada 2"><g id="Camada_9" data-name="Camada 9"><path d="M487.23,457.77c8.39,23.29,24.78,42.88,47.49,48.67,6.86-17.61,13.46-45,12.16-80.36,15.69,13.72,23.63,30.31,46.06,39.81,10.54-17-.91-48.26-1.84-72.14,10.81,20.79,25.14,31.47,35.94,39.94,13.68-9.64,10-35.1,14.57-59.11,16.18,17.37,18.09,6.66,35.21,17.07,7.19-8.39,6.63-16.47,0-41.93,16.26,3.11,27.94.17,43-.13V325.66a51.8,51.8,0,0,0-12.7-17.58,63.29,63.29,0,0,0,12.7,6.44V0H81.48C54.72,3.54,38.74,11.53,19.17,28.71c10.67,12.43,20,18.37,43.13,26.76A215.3,215.3,0,0,0,0,85.82C19.24,102.9,43.4,116,72.69,125c-23.1,12.24-40.2,27.13-51.12,44.73,19.89,9.38,36.38,25.14,59.11,24.76-11.51,5.72-17.83,10.11-28.76,22,10.38,12.18,14.25,10.41,34.75,18.37-16,7.59-22.37,12.38-33.15,30.75,6,6.08,26.36,10.19,37.14,10.19,0,0-18.16,9.59-28,25.36,4,6.07,34.41,5.57,43.94,0-20.17,15.38-35.1,20.77-38.74,40.34,20.89,9.16,32.43,9.09,55.11,8.78-6.87,12.19-3.19,43.94-3.19,43.94,9.54-.25,40.73-20.37,40.73-20.37,2,16.37.4,37.54,5.6,48.72,22.51-2.77,28.09-24.06,50.88-40.35-3.61,25.57,1.18,41,12.86,61,12.11-5.21,19.76-16.26,25.44-29.92,3.5,31.14,7.67,49.09,19.77,67.11,21.26-12.85,43.84-29.66,52.8-57.83-.71,28.34-6,48.86,4.33,68.76,17-8.79,48-29.58,58-52.58-4.15,30.77-13.43,36.43,1.8,60.51,23.11-9.31,35.2-11.23,51.79-40.78-5.54,25.39,5.12,42.81,15.5,61.16C478.6,500.84,486.18,480.54,487.23,457.77Z" style="fill:url(#Gradiente_sem_nome_7)"/></g></g></svg>