<svg xmlns="http://www.w3.org/2000/svg" xmlns:xlink="http://www.w3.org/1999/xlink" viewBox="0 0 660.19 1600.04"><defs><linearGradient id="Gradiente_sem_nome_164" x1="48.05" y1="670.17" x2="62.2" y2="670.17" gradientUnits="userSpaceOnUse"><stop offset="0" stop-color="#698cfe"/><stop offset="1" stop-color="#1c3bb1"/></linearGradient><linearGradient id="Gradiente_sem_nome_164-2" x1="0" y1="711.51" x2="62.66" y2="711.51" xlink:href="#Gradiente_sem_nome_164"/><linearGradient id="Gradiente_sem_nome_164-3" x1="23.97" y1="701.34" x2="106.68" y2="701.34" xlink:href="#Gradiente_sem_nome_164"/><linearGradient id="Gradiente_sem_nome_164-4" x1="211.46" y1="314.88" x2="232.34" y2="351.05" xlink:href="#Gradiente_sem_nome_164"/><linearGradient id="Gradiente_sem_nome_164-5" x1="198.71" y1="348.08" x2="229.46" y2="401.34" xlink:href="#Gradiente_sem_nome_164"/><linearGradient id="Gradiente_sem_nome_161" x1="232.24" y1="891.16" x2="257.88" y2="891.16" gradientUnits="userSpaceOnUse"><stop offset="0" stop-color="#1c3bb1"/><stop offset="1" stop-color="#698cfe"/></linearGradient><linearGradient id="Gradiente_sem_nome_161-2" x1="188.42" y1="961.15" x2="271.13" y2="961.15" xlink:href="#Gradiente_sem_nome_161"/><linearGradient id="Gradiente_sem_nome_105" x1="134.53" y1="1600.04" x2="134.53" gradientUnits="userSpaceOnUse"><stop offset="0.4" stop-color="#698cfe"/><stop offset="0.52" stop-color="#6d90fe"/><stop offset="0.64" stop-color="#7a9afe"/><stop offset="0.77" stop-color="#90acfe"/><stop offset="0.89" stop-color="#aec4ff"/><stop offset="1" stop-color="#cdf"/></linearGradient><linearGradient id="Gradiente_sem_nome_148" x1="577.49" y1="919.3" x2="660.19" y2="919.3" gradientUnits="userSpaceOnUse"><stop offset="0" stop-color="#1c3bb1"/><stop offset="0.19" stop-color="#3051c5"/><stop offset="0.53" stop-color="#4f71e4"/><stop offset="0.81" stop-color="#6285f7"/><stop offset="1" stop-color="#698cfe"/></linearGradient><linearGradient id="Gradiente_sem_nome_161-3" x1="397.53" y1="333.4" x2="462.32" y2="221.18" xlink:href="#Gradiente_sem_nome_161"/><linearGradient id="Gradiente_sem_nome_110" x1="533.32" y1="1598" x2="533.32" y2="102.19" gradientUnits="userSpaceOnUse"><stop offset="0.47" stop-color="#698cfe"/><stop offset="0.61" stop-color="#6c8efe"/><stop offset="0.71" stop-color="#7596fe"/><stop offset="0.8" stop-color="#85a3fe"/><stop offset="0.88" stop-color="#9cb6ff"/><stop offset="0.96" stop-color="#b9cdff"/><stop offset="1" stop-color="#cdf"/></linearGradient></defs><g id="Camada_2" data-name="Camada 2"><g id="Camada_5" data-name="Camada 5"><path d="M49.13,681.62c-2.61-14.71-.51-21.86,6.4-37.77C62,667,64.49,679,59.72,696.49L49.13,681.62" style="fill:url(#Gradiente_sem_nome_164)"/><path d="M51.16,709.62C31.72,689.87,19.08,702.71,0,701.34c21.45,22.6,35.64,21.82,62.66,23.19l-11.5-14.91" style="fill:url(#Gradiente_sem_nome_164-2)"/><path d="M105.09,758.83C58.72,727.12,39.81,703.94,24,646.42l11-2.57c11.13,48.66,36.53,70.39,71.75,82.13Z" style="fill:url(#Gradiente_sem_nome_164-3)"/><path d="M228.84,350.56c-16.05-7.49-12.38-21.91-19.18-34.64,11.72.69,22.36,16.19,22.36,24.49l-4.15,13.22" style="fill:url(#Gradiente_sem_nome_164-4)"/><path d="M188.84,424.79c30.43-26.92,42.84-46.59,53.23-95.41l-7.19-2.18c-7.31,41.3-24,59.75-47.08,69.71Z" style="fill:url(#Gradiente_sem_nome_164-5)"/><path d="M257.88,898.37c-6-15.71-15.24-24.22-25.64-30.11,3.28,24,10.32,38.65,21.5,45.8l4.14-15.69" style="fill:url(#Gradiente_sem_nome_161)"/><path d="M190,1035.52c46.37-41,65.28-71,81.12-145.41l-10.95-3.33c-11.14,63-36.54,91.06-71.76,106.25Z" style="fill:url(#Gradiente_sem_nome_161-2)"/><polygon points="77.54 1600.04 191.51 1600.04 187.52 0 120.86 14.36 77.54 1600.04" style="fill:url(#Gradiente_sem_nome_105)"/><path d="M579.08,993.65c46.36-41,65.27-71,81.11-145.38l-11-3.33c-11.13,62.94-36.53,91-71.74,106.23Z" style="fill:url(#Gradiente_sem_nome_148)"/><path d="M483.08,382.8c-64.38-57-90.12-97.65-112.11-201l15.21-4.62c15.46,87.4,51.45,126.47,100.36,147.55Z" style="fill:url(#Gradiente_sem_nome_161-3)"/><polygon points="559.34 102.19 601.58 1594.34 465.05 1598 482.92 112.42 559.34 102.19" style="fill:url(#Gradiente_sem_nome_110)"/></g></g></svg>