<svg xmlns="http://www.w3.org/2000/svg" viewBox="0 0 427.82 427.82">
  <g id="Camada_2" data-name="Camada 2">
    <g id="Capa_1" data-name="Capa 1">
      <g>
        <path d="M0,213.91C0,95.77,95.77,0,213.91,0S427.82,95.77,427.82,213.91,332.05,427.82,213.91,427.82,0,332.05,0,213.91ZM213.92,99.82c-31,0-34.87.14-47,.69s-20.44,2.48-27.69,5.3a58.39,58.39,0,0,0-33.38,33.37c-2.83,7.25-4.75,15.55-5.3,27.69s-.69,16.06-.69,47,.14,34.86.69,47,2.48,20.44,5.3,27.69A58.41,58.41,0,0,0,139.17,322c7.26,2.82,15.56,4.74,27.7,5.3s16,.69,47,.69,34.86-.14,47-.69,20.44-2.48,27.7-5.3A58.41,58.41,0,0,0,322,288.63c2.81-7.25,4.73-15.55,5.31-27.69s.68-16.05.68-47-.14-34.87-.68-47-2.5-20.44-5.31-27.69a58.34,58.34,0,0,0-33.37-33.37c-7.27-2.82-15.56-4.74-27.71-5.3s-16-.69-47-.69Z" style="fill-rule: evenodd"/>
        <path d="M203.69,120.38h10.23c30.46,0,34.07.11,46.1.66,11.12.51,17.16,2.37,21.18,3.93a37.8,37.8,0,0,1,21.65,21.65c1.56,4,3.42,10.06,3.93,21.18.55,12,.66,15.64.66,46.08s-.11,34.06-.66,46.09c-.51,11.12-2.37,17.16-3.93,21.18a37.9,37.9,0,0,1-21.65,21.64c-4,1.56-10.06,3.42-21.18,3.93-12,.54-15.64.66-46.1.66s-34.07-.12-46.1-.66c-11.12-.52-17.16-2.38-21.18-3.94A37.8,37.8,0,0,1,125,281.14c-1.56-4-3.42-10.06-3.93-21.18-.55-12-.66-15.64-.66-46.1s.11-34.06.66-46.09c.51-11.12,2.37-17.16,3.93-21.18a37.84,37.84,0,0,1,21.66-21.66c4-1.57,10.06-3.42,21.18-3.93,10.52-.48,14.6-.62,35.87-.64Zm71.13,19A13.69,13.69,0,1,0,288.51,153,13.68,13.68,0,0,0,274.82,139.33Zm-60.9,16a58.59,58.59,0,1,0,58.58,58.59A58.59,58.59,0,0,0,213.92,155.32Z" style="fill-rule: evenodd"/>
        <path d="M213.92,175.88a38,38,0,1,1-38,38A38,38,0,0,1,213.92,175.88Z" style="fill-rule: evenodd"/>
      </g>
    </g>
  </g>
</svg>
