<svg xmlns="http://www.w3.org/2000/svg" xmlns:xlink="http://www.w3.org/1999/xlink" viewBox="0 0 683.06 1632.72"><defs><linearGradient id="Gradiente_sem_nome_95" x1="181.79" y1="716.52" x2="471.05" y2="716.52" gradientUnits="userSpaceOnUse"><stop offset="0" stop-color="#0d207a"/><stop offset="0.42" stop-color="#0e217d"/><stop offset="0.77" stop-color="#0f2688"/><stop offset="1" stop-color="#112a93"/></linearGradient></defs><g id="Camada_2" data-name="Camada 2"><g id="Camada_2-2" data-name="Camada 2"><path d="M249.41,781.83,610.2,734.3a83.81,83.81,0,0,0,72.86-83.09h-432Z" style="fill:url(#Gradiente_sem_nome_95)"/><polyline points="0 1632.72 64.11 15.8 261.85 20.29 241.6 1632.72" style="fill:#0d207a"/><path d="M23.22,1107.06l0-.77s130,7,119.82,75.48-64.12,159.16-48,227.86-89.34,93-89.34,93l.06-1.3" style="fill:none;stroke:#334aa8;stroke-miterlimit:10"/><path d="M34.45,853c32.94,202.37,212.44,210.8,212.44,401.58" style="fill:none;stroke:#334aa8;stroke-miterlimit:10"/><path d="M249.41,962.43C214,601.88-23.35,408.13,111.74.16" style="fill:none;stroke:#334aa8;stroke-miterlimit:10"/><path d="M259,392.81C142.56,546.08,203.29,701.93,250.31,865" style="fill:none;stroke:#334aa8;stroke-miterlimit:10"/><path d="M565.55,651.21C442.2,674.62,401.26,750,311.56,773.65" style="fill:none;stroke:#334aa8;stroke-miterlimit:10"/></g></g></svg>