<svg xmlns="http://www.w3.org/2000/svg" viewBox="0 0 625.81 346.4"><g id="Camada_2" data-name="Camada 2"><g id="Camada_2-2" data-name="Camada 2"><path d="M617.73,346.4c-6-13.93-21.15-15.08-34.42-23.52,21.34-10.82,33.79-20.74,42.5-33.65-15.49-5.64-33.64-8.32-54.33-6.6,11.81-12.95,17.74-26.78,17.66-41.53-9.71-1-18.73,2.67-27.45,8.39C571,231.21,575,220,573.89,206.2c-18.42.31-33.32,7.73-49.53,20.4,11-15.39,16.11-30.38,16.89-44.63-14.19-.56-28.87,5.74-43.78,15.26,14.08-15.64,21.52-28.41,20.67-46.54-18.3-2.23-39.13,2.85-60.75,13.86,13-12.23,12.6-25.24,12.75-38.66-19.36,4.18-31.77,13-40.89,25.18,3.26-15.51,0-31.54-12.45-42-10.94,7.52-25.35,20.53-37.63,40.43-5-12.56-3.93-24.24-14.81-36.62-15.49,2.51-25.3,13.62-33.56,27.09.77-14.91-.87-25.85-4.66-34-12.37,1-24.32,11-36.19,22.72,8.38-17.8,14-34.42,6.85-45.61-14.27,4.46-24.08,14.74-32,27.47,2.35-16.51-.18-30.63-11.55-40.44-18.17,4.93-32.73,11.72-41.78,21.37,1.6-11.48.52-21.49-7.11-27.93-19.32-1.2-31.26,2.44-46.22,13.43l-4.45-31.28a81.48,81.48,0,0,0-38.43,26.7c2.64-13.2.41-26-8-38.15-20.33,5-36.08,16.12-46,35.1,4.22-18.7,2.3-33.54-11.56-44.25-10.55,9.37-17.61,20.59-19.9,34.33C29.62,35.15,29.3,10.89,10.58,0A34.22,34.22,0,0,0,0,5.71V346.34Z" style="fill:#21429e"/></g></g></svg>