<svg xmlns="http://www.w3.org/2000/svg" xmlns:xlink="http://www.w3.org/1999/xlink" viewBox="0 0 116.77 141.85"><defs><linearGradient id="Gradiente_sem_nome_174" x1="896.97" y1="126.2" x2="958" y2="20.48" gradientTransform="matrix(-1, 0, 0, 1, 942.19, 0)" gradientUnits="userSpaceOnUse"><stop offset="0" stop-color="#7871ff"/><stop offset="1" stop-color="#9f9fff"/></linearGradient><linearGradient id="Gradiente_sem_nome_174-2" x1="840.54" y1="108.44" x2="883.73" y2="33.64" xlink:href="#Gradiente_sem_nome_174"/></defs><g id="Camada_2" data-name="Camada 2"><g id="Camada_13" data-name="Camada 13"><path d="M42.41,127.82C39.21,54.26,21.14,28.13,4.53,8.74c-9.61,19.39-3,85.06,11.36,119.08" style="fill:url(#Gradiente_sem_nome_174)"/><path d="M39.92,97C55.14,57.43,77.84,23.46,116.33.23c-6.48,54-26.83,106.29-58.53,131.51l-14,10.11Z" style="fill:url(#Gradiente_sem_nome_174-2)"/><line x1="93.08" y1="44.06" x2="96.52" y2="14.21" style="fill:none;stroke:#9f9fff;stroke-miterlimit:10"/><line x1="85.31" y1="58.72" x2="109.99" y2="35.7" style="fill:none;stroke:#9f9fff;stroke-miterlimit:10"/><line x1="70.66" y1="86.34" x2="69.22" y2="42.73" style="fill:none;stroke:#9f9fff;stroke-miterlimit:10"/><line x1="89.2" y1="92.08" x2="60.04" y2="106.36" style="fill:none;stroke:#9f9fff;stroke-miterlimit:10"/><line x1="116.33" y1="0.23" x2="48.66" y2="127.82" style="fill:none;stroke:#9f9fff;stroke-miterlimit:10"/><line x1="27.02" y1="110.33" x2="5.03" y2="89.51" style="fill:none;stroke:#9f9fff;stroke-miterlimit:10"/><line x1="19.63" y1="82.55" x2="26.03" y2="41.99" style="fill:none;stroke:#9f9fff;stroke-miterlimit:10"/><line x1="12.69" y1="52.86" x2="13.61" y2="20.2" style="fill:none;stroke:#9f9fff;stroke-miterlimit:10"/><line x1="20.88" y1="87.47" x2="1.19" y2="62.58" style="fill:none;stroke:#9f9fff;stroke-miterlimit:10"/><line x1="28.24" y1="114.67" x2="34.97" y2="69.04" style="fill:none;stroke:#9f9fff;stroke-miterlimit:10"/><path d="M4.53,8.74c6.91,45.11,17.78,86,27.51,119.08" style="fill:none;stroke:#9f9fff;stroke-miterlimit:10"/></g></g></svg>