<svg xmlns="http://www.w3.org/2000/svg" xmlns:xlink="http://www.w3.org/1999/xlink" viewBox="0 0 587.84 151.83"><defs><linearGradient id="Gradiente_sem_nome_61" x1="115.7" y1="129.98" x2="198.05" y2="-12.65" gradientUnits="userSpaceOnUse"><stop offset="0" stop-color="#1c3bb1"/><stop offset="1" stop-color="#1767db"/></linearGradient><linearGradient id="Gradiente_sem_nome_59" x1="69.66" y1="140.07" x2="69.66" y2="46.7" gradientUnits="userSpaceOnUse"><stop offset="0.01" stop-color="#1c3bb1"/><stop offset="1" stop-color="#1767db"/></linearGradient><linearGradient id="Gradiente_sem_nome_174" x1="83.97" y1="136.25" x2="127.48" y2="60.89" gradientTransform="matrix(-1, 0, 0, 1, 199.15, 0)" gradientUnits="userSpaceOnUse"><stop offset="0" stop-color="#7871ff"/><stop offset="1" stop-color="#9f9fff"/></linearGradient><linearGradient id="Gradiente_sem_nome_174-2" x1="43.75" y1="123.59" x2="74.53" y2="70.27" xlink:href="#Gradiente_sem_nome_174"/><linearGradient id="Gradiente_sem_nome_67" x1="504.3" y1="-2.58" x2="582.29" y2="132.51" gradientUnits="userSpaceOnUse"><stop offset="0" stop-color="#1767db"/><stop offset="0.29" stop-color="#1763d7"/><stop offset="0.61" stop-color="#1956ca"/><stop offset="0.93" stop-color="#1b40b6"/><stop offset="0.99" stop-color="#1c3bb1"/></linearGradient><linearGradient id="Gradiente_sem_nome_174-3" x1="493.55" y1="133.45" x2="499.13" y2="123.79" gradientTransform="matrix(1, 0, 0, 1, 0, 0)" xlink:href="#Gradiente_sem_nome_174"/><linearGradient id="Gradiente_sem_nome_174-4" x1="477.06" y1="134.83" x2="516.87" y2="65.87" gradientTransform="matrix(1, 0, 0, 1, 0, 0)" xlink:href="#Gradiente_sem_nome_174"/><linearGradient id="Gradiente_sem_nome_174-5" x1="486.78" y1="129.55" x2="516.45" y2="78.17" gradientTransform="matrix(1, 0, 0, 1, 0, 0)" xlink:href="#Gradiente_sem_nome_174"/><linearGradient id="Gradiente_sem_nome_174-6" x1="497.2" y1="135.57" x2="512.27" y2="109.47" gradientTransform="matrix(1, 0, 0, 1, 0, 0)" xlink:href="#Gradiente_sem_nome_174"/></defs><g id="Camada_2" data-name="Camada 2"><g id="Camada_2-2" data-name="Camada 2"><path d="M140.47,131.87c-7-62.49,18.36-104,62.53-131.73,7,31.46,4.83,53.77-9.37,79.12C177.79,99,162,118.71,156.37,129.72c31.29-53.24,78.75-87.22,126.16-93.59-14.84,49.34-52.92,82.73-102.92,108l-45.7-3.6C93,113.61,79.72,62,68.77,8.42,99.41,31,117.53,51.27,139.87,98.7c-1.71,12.43-.42,19.76.6,33.17" style="fill:url(#Gradiente_sem_nome_61)"/><path d="M175.65,131.87c29.71-25,67.21-59.86,106.88-95.74" style="fill:none;stroke:#6490ff;stroke-miterlimit:10"/><path d="M206.61,104.92c2.26-17.22,4.28-29.49,9.18-41.29" style="fill:none;stroke:#6490ff;stroke-miterlimit:10"/><path d="M217.07,95.55a180,180,0,0,0,38.86-9.37" style="fill:none;stroke:#6490ff;stroke-miterlimit:10"/><path d="M235.07,79.26c2.92-14.39,8.6-26.14,15.64-34.74" style="fill:none;stroke:#6490ff;stroke-miterlimit:10"/><path d="M181,127.23A107.09,107.09,0,0,0,219.69,120" style="fill:none;stroke:#6490ff;stroke-miterlimit:10"/><path d="M247.5,68c6.75-1.6,22.71-6.8,27.9-13" style="fill:none;stroke:#6490ff;stroke-miterlimit:10"/><path d="M189.11,120c-.14-19.9,1.63-29.12,4.35-37.76" style="fill:none;stroke:#6490ff;stroke-miterlimit:10"/><path d="M148.57,133.8c14.24-44,39.11-83,54.43-133.66" style="fill:none;stroke:#6490ff;stroke-miterlimit:10"/><path d="M164.09,94.23c17-7,26.25-14.51,31.87-19.47" style="fill:none;stroke:#6490ff;stroke-miterlimit:10"/><path d="M176.36,67.47c13.95-6.78,21.24-15.33,29.46-24.69" style="fill:none;stroke:#6490ff;stroke-miterlimit:10"/><path d="M170.78,78.9c-3.85-18.84-5.11-34.64-3.67-47.92" style="fill:none;stroke:#6490ff;stroke-miterlimit:10"/><path d="M185.54,47.16c-.61-13.25-.39-26.62,3.14-37.13" style="fill:none;stroke:#6490ff;stroke-miterlimit:10"/><path d="M160.57,102.3c-4.94-15.77-10.06-27.77-9.95-45.48" style="fill:none;stroke:#6490ff;stroke-miterlimit:10"/><line x1="131.12" y1="119.98" x2="99.41" y2="103.14" style="fill:none;stroke:#6490ff;stroke-miterlimit:10"/><path d="M126,105.38A80.63,80.63,0,0,0,129.44,78" style="fill:none;stroke:#6490ff;stroke-miterlimit:10"/><path d="M135.68,140.63c-3.8-36-38.59-99.94-65.74-131.54" style="fill:none;stroke:#6490ff;stroke-miterlimit:10"/><path d="M114.6,80c1.58-7.76,1.63-14.78.9-24.42" style="fill:none;stroke:#6490ff;stroke-miterlimit:10"/><path d="M101,53.9c-1.34-9.56-5.58-19.11-11.63-28.66" style="fill:none;stroke:#6490ff;stroke-miterlimit:10"/><path d="M121.3,94.23C108.46,91.8,94.92,80.11,84.88,71" style="fill:none;stroke:#6490ff;stroke-miterlimit:10"/><path d="M106.37,64.31C95.49,59.84,84.23,50.1,76.13,41.38" style="fill:none;stroke:#6490ff;stroke-miterlimit:10"/><path d="M92.48,132.14C97,91.61,80.57,64.67,51.92,46.7,47.39,67.1,48.79,81.57,58,98c10.27,12.79,20.55,25.59,24.17,32.73C61.87,96.21,31.09,74.18.34,70c9.62,32,34.32,53.66,66.75,70l29.65-2.34C123.29,120.3,131.88,86.84,139,52.07c-19.87,14.63-31.62,27.79-46.11,58.56,1.11,8.06.27,12.81-.39,21.51" style="fill:url(#Gradiente_sem_nome_59)"/><path d="M69.66,132.14C50.39,115.91,26.07,93.32.34,70" style="fill:none;stroke:#6490ff;stroke-miterlimit:10"/><path d="M49.58,114.66c-1.47-11.17-2.77-19.13-5.95-26.78" style="fill:none;stroke:#6490ff;stroke-miterlimit:10"/><path d="M42.8,108.58a116.77,116.77,0,0,1-25.21-6.07" style="fill:none;stroke:#6490ff;stroke-miterlimit:10"/><path d="M31.12,98c-1.9-9.34-5.58-17-10.15-22.53" style="fill:none;stroke:#6490ff;stroke-miterlimit:10"/><path d="M66.17,129.14a69.74,69.74,0,0,1-25.08-4.71" style="fill:none;stroke:#6490ff;stroke-miterlimit:10"/><path d="M23.06,90.69c-4.38-1-14.74-4.41-18.1-8.41" style="fill:none;stroke:#6490ff;stroke-miterlimit:10"/><path d="M60.93,124.43c.09-12.9-1.06-18.89-2.82-24.49" style="fill:none;stroke:#6490ff;stroke-miterlimit:10"/><path d="M87.23,133.39C78,104.84,61.86,79.55,51.92,46.7" style="fill:none;stroke:#6490ff;stroke-miterlimit:10"/><path d="M77.16,107.73c-11-4.57-17-9.41-20.67-12.63" style="fill:none;stroke:#6490ff;stroke-miterlimit:10"/><path d="M69.2,90.37c-9.05-4.4-13.78-9.94-19.11-16" style="fill:none;stroke:#6490ff;stroke-miterlimit:10"/><path d="M72.82,97.78c2.49-12.22,3.32-22.46,2.38-31.08" style="fill:none;stroke:#6490ff;stroke-miterlimit:10"/><path d="M63.25,77.2c.39-8.6.25-17.27-2-24.09" style="fill:none;stroke:#6490ff;stroke-miterlimit:10"/><path d="M79.44,113c3.21-10.23,6.52-18,6.46-29.5" style="fill:none;stroke:#6490ff;stroke-miterlimit:10"/><line x1="98.55" y1="124.43" x2="119.11" y2="113.51" style="fill:none;stroke:#6490ff;stroke-miterlimit:10"/><path d="M101.89,115a52.47,52.47,0,0,1-2.26-17.77" style="fill:none;stroke:#6490ff;stroke-miterlimit:10"/><path d="M95.58,137.82c2.47-23.32,25-64.82,42.65-85.31" style="fill:none;stroke:#6490ff;stroke-miterlimit:10"/><path d="M109.26,98.48c-1-5-1.06-9.58-.58-15.83" style="fill:none;stroke:#6490ff;stroke-miterlimit:10"/><path d="M118.11,81.57c.87-6.2,3.62-12.4,7.54-18.59" style="fill:none;stroke:#6490ff;stroke-miterlimit:10"/><path d="M104.91,107.73c8.34-1.58,17.12-9.16,23.62-15" style="fill:none;stroke:#6490ff;stroke-miterlimit:10"/><path d="M114.6,88.32c7.06-2.9,14.36-9.22,19.62-14.87" style="fill:none;stroke:#6490ff;stroke-miterlimit:10"/><path d="M113.18,137.41C110.89,85,98,66.34,86.17,52.52c-6.84,13.82-2.16,60.63,8.1,84.89" style="fill:url(#Gradiente_sem_nome_174)"/><path d="M111.4,115.43c10.85-28.2,27-52.42,54.47-69-4.62,38.51-19.12,75.76-41.72,93.74l-10,7.21Z" style="fill:url(#Gradiente_sem_nome_174-2)"/><line x1="149.3" y1="77.7" x2="151.75" y2="56.42" style="fill:none;stroke:#9f9fff;stroke-miterlimit:10"/><line x1="143.76" y1="88.15" x2="161.35" y2="71.74" style="fill:none;stroke:#9f9fff;stroke-miterlimit:10"/><line x1="133.31" y1="107.84" x2="132.29" y2="76.75" style="fill:none;stroke:#9f9fff;stroke-miterlimit:10"/><line x1="146.53" y1="111.93" x2="125.74" y2="122.11" style="fill:none;stroke:#9f9fff;stroke-miterlimit:10"/><line x1="165.87" y1="46.46" x2="117.63" y2="137.41" style="fill:none;stroke:#9f9fff;stroke-miterlimit:10"/><line x1="102.2" y1="124.93" x2="86.53" y2="110.1" style="fill:none;stroke:#9f9fff;stroke-miterlimit:10"/><line x1="96.94" y1="105.14" x2="101.5" y2="76.22" style="fill:none;stroke:#9f9fff;stroke-miterlimit:10"/><line x1="91.99" y1="83.97" x2="92.65" y2="60.69" style="fill:none;stroke:#9f9fff;stroke-miterlimit:10"/><line x1="97.83" y1="108.64" x2="83.79" y2="90.9" style="fill:none;stroke:#9f9fff;stroke-miterlimit:10"/><line x1="103.08" y1="128.03" x2="107.87" y2="95.5" style="fill:none;stroke:#9f9fff;stroke-miterlimit:10"/><path d="M86.17,52.52c4.93,32.16,12.68,61.31,19.62,84.89" style="fill:none;stroke:#9f9fff;stroke-miterlimit:10"/><path d="M583.44,22.72c-13.66,15.9-28.32,36.49-34.41,85.62v0C534.25,70,512.18,37,474.77,14.47c6.29,52.4,26.07,103.08,56.89,127.55l13.63,9.81,1.54-17.92c-.07,1.42-.15,2.85-.21,4.31H572.4C586.4,105.22,592.78,41.53,583.44,22.72Z" style="fill:url(#Gradiente_sem_nome_67)"/><line x1="497.36" y1="56.97" x2="494.02" y2="28.02" style="fill:none;stroke:#6490ff;stroke-miterlimit:10"/><line x1="504.92" y1="71.2" x2="480.93" y2="48.87" style="fill:none;stroke:#6490ff;stroke-miterlimit:10"/><line x1="519.16" y1="97.99" x2="520.56" y2="55.69" style="fill:none;stroke:#6490ff;stroke-miterlimit:10"/><line x1="501.14" y1="103.55" x2="529.48" y2="117.41" style="fill:none;stroke:#6490ff;stroke-miterlimit:10"/><line x1="474.77" y1="14.47" x2="540.55" y2="138.22" style="fill:none;stroke:#6490ff;stroke-miterlimit:10"/><line x1="561.58" y1="121.25" x2="582.95" y2="101.06" style="fill:none;stroke:#6490ff;stroke-miterlimit:10"/><line x1="568.76" y1="94.31" x2="562.54" y2="54.97" style="fill:none;stroke:#6490ff;stroke-miterlimit:10"/><line x1="575.51" y1="65.51" x2="574.61" y2="33.84" style="fill:none;stroke:#6490ff;stroke-miterlimit:10"/><line x1="567.55" y1="99.08" x2="586.69" y2="74.94" style="fill:none;stroke:#6490ff;stroke-miterlimit:10"/><line x1="560.39" y1="125.46" x2="553.85" y2="81.2" style="fill:none;stroke:#6490ff;stroke-miterlimit:10"/><path d="M583.44,22.72c-6.72,43.75-17.29,83.42-26.75,115.5" style="fill:none;stroke:#6490ff;stroke-miterlimit:10"/><path d="M497.39,135.67a54.13,54.13,0,0,0-2.11-14.1A62.26,62.26,0,0,1,497.39,135.67Z" style="fill:url(#Gradiente_sem_nome_174-3)"/><path d="M542.54,80.69C531.87,90.08,521.4,99.9,513,109.9h0c-9.16,11.34-11.65,16-15.64,25.76a62.26,62.26,0,0,0-2.11-14.1A71,71,0,0,0,489.83,108c-6.37-11.68-16.61-22-30.27-31.23-1.5,26.86,3.82,49.34,24.39,62l40.82-3.14C539.94,121.43,544.45,102.39,542.54,80.69Z" style="fill:url(#Gradiente_sem_nome_174-4)"/><path d="M497.39,135.67c2.93-8.64,8.53-17.27,15.64-25.77C515,99.26,517.09,83,508.59,73.63c-11.62,10-18.53,21.27-18.88,34.17l.12.23a62,62,0,0,1,5.45,13.54A54.13,54.13,0,0,1,497.39,135.67Z" style="fill:url(#Gradiente_sem_nome_174-5)"/><path d="M513,109.91h0c-7.11,8.5-12.71,17.13-15.64,25.77C501.38,125.89,503.87,121.25,513,109.91Z" style="fill:url(#Gradiente_sem_nome_174-6)"/><line x1="519.63" y1="123.91" x2="537.04" y2="118.88" style="fill:none;stroke:#9f9fff;stroke-miterlimit:10"/><line x1="525.56" y1="114.41" x2="522.62" y2="99.36" style="fill:none;stroke:#9f9fff;stroke-miterlimit:10"/><path d="M537.7,91.9A20.15,20.15,0,0,0,543,86.41" style="fill:none;stroke:#9f9fff;stroke-miterlimit:10"/><path d="M531.19,104.65c-1.35-5.33-1.39-9.3-.12-13.56" style="fill:none;stroke:#9f9fff;stroke-miterlimit:10"/><path d="M525.56,114.41c5.47-2.75,11-4.47,15.9-9" style="fill:none;stroke:#9f9fff;stroke-miterlimit:10"/><path d="M517.17,127.63c-1.36-8.75-1.81-13.36-1.66-20.62" style="fill:none;stroke:#9f9fff;stroke-miterlimit:10"/><path d="M542.54,80.69c-7.76,19.94-21,41.34-31.77,56.06l-2.18-21.25" style="fill:none;stroke:#9f9fff;stroke-miterlimit:10"/><path d="M500.7,117.32a82.75,82.75,0,0,0,14-21.86" style="fill:none;stroke:#9f9fff;stroke-miterlimit:10"/><line x1="505.92" y1="88.43" x2="502.68" y2="79.28" style="fill:none;stroke:#9f9fff;stroke-miterlimit:10"/><line x1="503.87" y1="99.76" x2="513.95" y2="84.83" style="fill:none;stroke:#9f9fff;stroke-miterlimit:10"/><line x1="501.82" y1="111.14" x2="492.86" y2="93.77" style="fill:none;stroke:#9f9fff;stroke-miterlimit:10"/><line x1="508.59" y1="73.63" x2="497.39" y2="135.67" style="fill:none;stroke:#9f9fff;stroke-miterlimit:10"/><path d="M480.54,119.66A93.58,93.58,0,0,0,479.81,94" style="fill:none;stroke:#9f9fff;stroke-miterlimit:10"/><line x1="471.7" y1="103.16" x2="469.75" y2="84.4" style="fill:none;stroke:#9f9fff;stroke-miterlimit:10"/><line x1="479.89" y1="118.39" x2="461.77" y2="107.38" style="fill:none;stroke:#9f9fff;stroke-miterlimit:10"/><path d="M487.33,131.07c.94-10,1.18-19.31,0-27.27" style="fill:none;stroke:#9f9fff;stroke-miterlimit:10"/><path d="M473.36,106.39c-6.05-3.94-10.24-6.74-13.8-15" style="fill:none;stroke:#9f9fff;stroke-miterlimit:10"/><path d="M459.56,76.8a415.71,415.71,0,0,0,30,58.14" style="fill:none;stroke:#9f9fff;stroke-miterlimit:10"/></g></g></svg>