<svg xmlns="http://www.w3.org/2000/svg" xmlns:xlink="http://www.w3.org/1999/xlink" viewBox="0 0 1074.44 916.19"><defs><linearGradient id="Gradiente_sem_nome_146" x1="947.86" y1="400.19" x2="955.89" y2="400.19" gradientUnits="userSpaceOnUse"><stop offset="0" stop-color="#8fb4ff"/><stop offset="1" stop-color="#112a93"/></linearGradient><linearGradient id="Gradiente_sem_nome_146-2" x1="934.2" y1="400.19" x2="981.13" y2="400.19" xlink:href="#Gradiente_sem_nome_146"/><linearGradient id="Gradiente_sem_nome_146-3" x1="947.86" y1="391.77" x2="955.89" y2="391.77" xlink:href="#Gradiente_sem_nome_146"/><linearGradient id="Gradiente_sem_nome_146-4" x1="934.2" y1="391.77" x2="981.13" y2="391.77" xlink:href="#Gradiente_sem_nome_146"/><linearGradient id="Gradiente_sem_nome_146-5" x1="920.6" y1="410.42" x2="956.15" y2="410.42" xlink:href="#Gradiente_sem_nome_146"/><linearGradient id="Gradiente_sem_nome_146-6" x1="934.2" y1="410.42" x2="981.13" y2="410.42" xlink:href="#Gradiente_sem_nome_146"/><linearGradient id="Gradiente_sem_nome_146-7" x1="1040.58" y1="183.67" x2="1052.42" y2="204.17" xlink:href="#Gradiente_sem_nome_146"/><linearGradient id="Gradiente_sem_nome_146-8" x1="1033.35" y1="202.51" x2="1050.8" y2="232.72" xlink:href="#Gradiente_sem_nome_146"/><linearGradient id="Gradiente_sem_nome_146-9" x1="1043.06" y1="182.24" x2="1054.9" y2="202.76" xlink:href="#Gradiente_sem_nome_146"/><linearGradient id="Gradiente_sem_nome_146-10" x1="1049.4" y1="193.24" x2="1066.85" y2="223.45" xlink:href="#Gradiente_sem_nome_146"/><linearGradient id="Gradiente_sem_nome_146-11" x1="1038.06" y1="185.13" x2="1049.9" y2="205.65" xlink:href="#Gradiente_sem_nome_146"/><linearGradient id="Gradiente_sem_nome_146-12" x1="1044.4" y1="196.12" x2="1061.85" y2="226.34" xlink:href="#Gradiente_sem_nome_146"/><linearGradient id="Gradiente_sem_nome_133" x1="1052.37" y1="510.66" x2="1066.92" y2="510.66" gradientUnits="userSpaceOnUse"><stop offset="0" stop-color="#1c3bb1"/><stop offset="1" stop-color="#698cfe"/></linearGradient><linearGradient id="Gradiente_sem_nome_133-2" x1="1027.51" y1="550.35" x2="1074.44" y2="550.35" xlink:href="#Gradiente_sem_nome_133"/><linearGradient id="Gradiente_sem_nome_139" x1="1052.37" y1="514.76" x2="1066.92" y2="514.76" gradientUnits="userSpaceOnUse"><stop offset="0" stop-color="#112a93"/><stop offset="1" stop-color="#8fb4ff"/></linearGradient><linearGradient id="Gradiente_sem_nome_139-2" x1="1027.51" y1="514.76" x2="1074.44" y2="514.76" xlink:href="#Gradiente_sem_nome_139"/><linearGradient id="Gradiente_sem_nome_105" x1="996.93" y1="912.89" x2="996.93" y2="5" gradientUnits="userSpaceOnUse"><stop offset="0.4" stop-color="#698cfe"/><stop offset="0.52" stop-color="#6d90fe"/><stop offset="0.64" stop-color="#7a9afe"/><stop offset="0.77" stop-color="#90acfe"/><stop offset="0.89" stop-color="#aec4ff"/><stop offset="1" stop-color="#cdf"/></linearGradient><linearGradient id="Gradiente_sem_nome_146-13" x1="947.86" y1="385.26" x2="955.89" y2="385.26" xlink:href="#Gradiente_sem_nome_146"/><linearGradient id="Gradiente_sem_nome_146-14" x1="920.6" y1="408.72" x2="956.15" y2="408.72" xlink:href="#Gradiente_sem_nome_146"/><linearGradient id="Gradiente_sem_nome_151" x1="934.2" y1="402.07" x2="981.13" y2="402.07" gradientUnits="userSpaceOnUse"><stop offset="0" stop-color="#698cfe"/><stop offset="1" stop-color="#1c3bb1"/></linearGradient><linearGradient id="Gradiente_sem_nome_146-15" x1="1014.56" y1="213.35" x2="1032.01" y2="243.57" xlink:href="#Gradiente_sem_nome_146"/><linearGradient id="Gradiente_sem_nome_165" x1="1027.37" y1="912.89" x2="1027.37" y2="5" gradientUnits="userSpaceOnUse"><stop offset="0.4" stop-color="#8fb4ff"/><stop offset="0.55" stop-color="#93b7ff"/><stop offset="0.71" stop-color="#a0c0ff"/><stop offset="0.87" stop-color="#b6ceff"/><stop offset="1" stop-color="#cdf"/></linearGradient><linearGradient id="Gradiente_sem_nome_139-3" x1="1027.51" y1="580.31" x2="1074.44" y2="580.31" xlink:href="#Gradiente_sem_nome_139"/><linearGradient id="Gradiente_sem_nome_165-2" x1="1027.99" y1="912.89" x2="1027.99" y2="5" xlink:href="#Gradiente_sem_nome_165"/><linearGradient id="Gradiente_sem_nome_133-3" x1="864.41" y1="526.81" x2="911.34" y2="526.81" xlink:href="#Gradiente_sem_nome_133"/><linearGradient id="Gradiente_sem_nome_133-4" x1="762.29" y1="194.32" x2="799.05" y2="130.63" xlink:href="#Gradiente_sem_nome_133"/><linearGradient id="Gradiente_sem_nome_110" x1="839.34" y1="911.97" x2="839.34" y2="63.11" gradientUnits="userSpaceOnUse"><stop offset="0.47" stop-color="#698cfe"/><stop offset="0.61" stop-color="#6c8efe"/><stop offset="0.71" stop-color="#7596fe"/><stop offset="0.8" stop-color="#85a3fe"/><stop offset="0.88" stop-color="#9cb6ff"/><stop offset="0.96" stop-color="#b9cdff"/><stop offset="1" stop-color="#cdf"/></linearGradient><linearGradient id="Gradiente_sem_nome_148" x1="15.72" y1="423.61" x2="46.31" y2="370.62" gradientUnits="userSpaceOnUse"><stop offset="0" stop-color="#1c3bb1"/><stop offset="0.19" stop-color="#3051c5"/><stop offset="0.53" stop-color="#4f71e4"/><stop offset="0.81" stop-color="#6285f7"/><stop offset="1" stop-color="#698cfe"/></linearGradient><linearGradient id="Gradiente_sem_nome_148-2" x1="15.07" y1="472.31" x2="51.84" y2="408.63" xlink:href="#Gradiente_sem_nome_148"/><linearGradient id="Gradiente_sem_nome_113" x1="87.89" y1="911.69" x2="87.89" y2="125.91" gradientUnits="userSpaceOnUse"><stop offset="0.39" stop-color="#698cfe"/><stop offset="0.56" stop-color="#6c8efe"/><stop offset="0.67" stop-color="#7596fe"/><stop offset="0.77" stop-color="#85a3fe"/><stop offset="0.86" stop-color="#9bb5ff"/><stop offset="0.95" stop-color="#b7ccff"/><stop offset="1" stop-color="#cdf"/></linearGradient><linearGradient id="Gradiente_sem_nome_151-2" x1="551.44" y1="380.27" x2="559.47" y2="380.27" xlink:href="#Gradiente_sem_nome_151"/><linearGradient id="Gradiente_sem_nome_151-3" x1="524.17" y1="403.72" x2="559.73" y2="403.72" xlink:href="#Gradiente_sem_nome_151"/><linearGradient id="Gradiente_sem_nome_151-4" x1="537.78" y1="397.95" x2="584.71" y2="397.95" xlink:href="#Gradiente_sem_nome_151"/><linearGradient id="Gradiente_sem_nome_151-5" x1="644.16" y1="178.67" x2="656.01" y2="199.19" xlink:href="#Gradiente_sem_nome_151"/><linearGradient id="Gradiente_sem_nome_151-6" x1="636.93" y1="197.51" x2="654.37" y2="227.73" xlink:href="#Gradiente_sem_nome_151"/><linearGradient id="Gradiente_sem_nome_133-5" x1="655.95" y1="505.66" x2="670.5" y2="505.66" xlink:href="#Gradiente_sem_nome_133"/><linearGradient id="Gradiente_sem_nome_133-6" x1="631.09" y1="545.37" x2="678.02" y2="545.37" xlink:href="#Gradiente_sem_nome_133"/><linearGradient id="Gradiente_sem_nome_105-2" x1="600.51" y1="907.89" x2="600.51" y2="0" xlink:href="#Gradiente_sem_nome_105"/><linearGradient id="Gradiente_sem_nome_148-3" x1="444.97" y1="531.03" x2="491.9" y2="531.03" xlink:href="#Gradiente_sem_nome_148"/><linearGradient id="Gradiente_sem_nome_133-7" x1="342.85" y1="198.53" x2="379.61" y2="134.85" xlink:href="#Gradiente_sem_nome_133"/><linearGradient id="Gradiente_sem_nome_110-2" x1="419.9" y1="916.19" x2="419.9" y2="67.32" xlink:href="#Gradiente_sem_nome_110"/></defs><g id="Camada_2" data-name="Camada 2"><g id="Camada_2-2" data-name="Camada 2"><path d="M1052.25,198.17l-2.35,7.46A73,73,0,0,0,1052.25,198.17Z" style="fill:none"/><path d="M954.47,400.19l-6-8.4A54.19,54.19,0,0,0,954.47,400.19Z" style="fill:none"/><polygon points="954.48 400.2 954.48 400.2 954.47 400.19 954.48 400.2" style="fill:url(#Gradiente_sem_nome_146)"/><polygon points="954.48 400.2 954.48 400.2 954.47 400.19 954.48 400.2" style="fill:url(#Gradiente_sem_nome_146-2)"/><path d="M948.49,391.79l0,0h0Z" style="fill:url(#Gradiente_sem_nome_146-3)"/><path d="M948.49,391.79l0,0h0Z" style="fill:url(#Gradiente_sem_nome_146-4)"/><path d="M953.87,413.15l-4.22-5.47C951,409.57,952.38,411.39,953.87,413.15Z" style="fill:url(#Gradiente_sem_nome_146-5)"/><path d="M953.87,413.15l-4.22-5.47C951,409.57,952.38,411.39,953.87,413.15Z" style="fill:url(#Gradiente_sem_nome_146-6)"/><path d="M1052.25,198.17v0c0-4.71-6-13.5-12.69-13.89,3.86,7.22,1.78,15.4,10.88,19.65l-.54,1.72h0Z" style="fill:url(#Gradiente_sem_nome_146-7)"/><path d="M1027.75,246c17.26-15.27,24.3-26.43,30.2-54.14l-4.08-1.23c-.47,2.66-1,5.15-1.62,7.49h0v0a73,73,0,0,1-2.35,7.46v0c-5,13.1-12.62,20.11-22.34,24.4l0,11.7Z" style="fill:url(#Gradiente_sem_nome_146-8)"/><path d="M1052.25,198.15h0v0Z" style="fill:url(#Gradiente_sem_nome_146-9)"/><path d="M1052.25,198.15h0v0Z" style="fill:url(#Gradiente_sem_nome_146-10)"/><polygon points="1049.9 205.63 1049.9 205.63 1049.9 205.65 1049.9 205.63" style="fill:url(#Gradiente_sem_nome_146-11)"/><polygon points="1049.9 205.63 1049.9 205.63 1049.9 205.65 1049.9 205.63" style="fill:url(#Gradiente_sem_nome_146-12)"/><path d="M1052.37,497.66c1.86,13.59,5.86,21.94,12.2,26l2.35-8.87v0A31.31,31.31,0,0,0,1052.37,497.66Z" style="fill:url(#Gradiente_sem_nome_133)"/><path d="M1074.44,510.06l-6.21-1.88c-.41,2.27-.84,4.45-1.31,6.57h0v0c-6.77,30.62-20.26,45.14-38.52,53.28l.06,24.46C1054.74,569.27,1065.46,552.25,1074.44,510.06Z" style="fill:url(#Gradiente_sem_nome_133-2)"/><path d="M1066.92,514.75h0v0Z" style="fill:url(#Gradiente_sem_nome_139)"/><path d="M1066.92,514.75h0v0Z" style="fill:url(#Gradiente_sem_nome_139-2)"/><path d="M1027.51,568.46l.89-.4-.81-326.33-.43-11.52.4-.18L1027,5l-37.83,8.15-11,402.73c1,.37,2,.72,3,1.05l-.9,18.64c-.87-.59-1.71-1.18-2.55-1.76L964.6,912.89h64.66l-.8-320.37,0,.05Z" style="fill:url(#Gradiente_sem_nome_105)"/><path d="M954.47,400.19h0c2.71-9.92,1.29-16.71-2.38-29.87-3.91,9-5.11,13.08-3.63,21.42l0,0Z" style="fill:url(#Gradiente_sem_nome_146-13)"/><path d="M949.63,407.65h0c-11-11.21-18.21-3.92-29-4.7,12.17,12.82,20.22,12.38,35.55,13.16l-2.28-3c-1.49-1.76-2.89-3.58-4.22-5.47Z" style="fill:url(#Gradiente_sem_nome_146-14)"/><path d="M954.48,400.2h0a54.19,54.19,0,0,1-6-8.4l0,0h0a76.82,76.82,0,0,1-8.06-21.42l-6.21,1.46c4.26,15.49,8.92,26.58,15.45,35.89l4.22,5.47c6.14,7.26,13.79,13.64,23.81,20.66l.49-17.93C968.88,412.41,960.89,407.54,954.48,400.2Z" style="fill:url(#Gradiente_sem_nome_151)"/><path d="M981.13,416.93c-1-.33-2-.68-3-1.05l-.49,17.93c.84.58,1.68,1.17,2.55,1.76Z" style="fill:#698cff"/><path d="M1027.59,241.73l0-11.7-.4.18Z" style="fill:url(#Gradiente_sem_nome_146-15)"/><path d="M1027.59,241.73l0-11.7-.4.18Z" style="fill:url(#Gradiente_sem_nome_165)"/><path d="M1027.51,568.46l.9,24.11,0-.05-.06-24.46Z" style="fill:url(#Gradiente_sem_nome_139-3)"/><path d="M1027.51,568.46l.9,24.11,0-.05-.06-24.46Z" style="fill:url(#Gradiente_sem_nome_165-2)"/><path d="M865.31,569c26.31-23.28,37.05-40.29,46-82.51l-6.21-1.88c-6.32,35.71-20.73,51.66-40.72,60.28Z" style="fill:url(#Gradiente_sem_nome_133-3)"/><path d="M810.84,222.35c-36.54-32.32-51.15-55.41-63.63-114l8.63-2.62c8.78,49.6,29.21,71.76,57,83.73Z" style="fill:url(#Gradiente_sem_nome_133-4)"/><polygon points="854.11 63.11 878.08 909.9 800.61 911.97 810.75 68.91 854.11 63.11" style="fill:url(#Gradiente_sem_nome_110)"/><path d="M17.22,415.29c.59-23.6,8-32.68,24.36-47.4,3.51,33.7-2.91,41.58-19.47,59.4Z" style="fill:url(#Gradiente_sem_nome_148)"/><path d="M63.62,500.34C27.09,468,12.48,444.93,0,386.3l8.63-2.62c8.78,49.6,29.2,71.77,57,83.73Z" style="fill:url(#Gradiente_sem_nome_148-2)"/><polygon points="78.98 132.06 41.59 911.69 125.44 911.69 134.2 125.91 78.98 132.06" style="fill:url(#Gradiente_sem_nome_113)"/><path d="M552.05,386.76c-1.48-8.34-.29-12.4,3.63-21.43,3.67,13.16,5.09,19.95,2.38,29.87l-6-8.44" style="fill:url(#Gradiente_sem_nome_151-2)"/><path d="M553.2,402.65c-11-11.2-18.2-3.92-29-4.7,12.18,12.83,20.23,12.38,35.56,13.16l-6.53-8.46" style="fill:url(#Gradiente_sem_nome_151-3)"/><path d="M583.81,430.57c-26.32-18-37-31.14-46-63.78l6.21-1.46c6.32,27.61,20.73,39.94,40.72,46.61Z" style="fill:url(#Gradiente_sem_nome_151-4)"/><path d="M654,198.92c-9.11-4.25-7-12.44-10.88-19.66,6.65.39,12.69,9.18,12.69,13.9l-2.36,7.49" style="fill:url(#Gradiente_sem_nome_151-5)"/><path d="M631.33,241c17.26-15.27,24.3-26.43,30.2-54.13l-4.08-1.24c-4.15,23.43-13.6,33.9-26.72,39.55Z" style="fill:url(#Gradiente_sem_nome_151-6)"/><path d="M670.5,509.75A31.28,31.28,0,0,0,656,492.67c1.86,13.59,5.86,21.93,12.2,26l2.35-8.9" style="fill:url(#Gradiente_sem_nome_133-5)"/><path d="M632,587.57c26.31-23.27,37-40.29,46-82.51l-6.22-1.88c-6.32,35.72-20.73,51.67-40.71,60.28Z" style="fill:url(#Gradiente_sem_nome_133-6)"/><polygon points="568.17 907.89 632.84 907.89 630.57 0 592.75 8.15 568.17 907.89" style="fill:url(#Gradiente_sem_nome_105-2)"/><path d="M445.87,573.22c26.31-23.27,37.05-40.28,46-82.5l-6.21-1.89C479.37,524.55,465,540.5,445,549.11Z" style="fill:url(#Gradiente_sem_nome_148-3)"/><path d="M391.4,226.56c-36.54-32.32-51.15-55.41-63.63-114l8.63-2.62c8.78,49.6,29.21,71.77,57,83.73Z" style="fill:url(#Gradiente_sem_nome_133-7)"/><polygon points="434.67 67.32 458.64 914.11 381.17 916.19 391.31 73.12 434.67 67.32" style="fill:url(#Gradiente_sem_nome_110-2)"/></g></g></svg>