<svg xmlns="http://www.w3.org/2000/svg" xmlns:xlink="http://www.w3.org/1999/xlink" viewBox="0 0 276.53 1631.89"><defs><linearGradient id="Gradiente_sem_nome_146" x1="8.58" y1="710.35" x2="23.01" y2="710.35" gradientTransform="matrix(-1, 0, 0, 1, 236.11, 0)" gradientUnits="userSpaceOnUse"><stop offset="0" stop-color="#8fb4ff"/><stop offset="1" stop-color="#112a93"/></linearGradient><linearGradient id="Gradiente_sem_nome_146-2" x1="-15.98" y1="710.35" x2="68.38" y2="710.35" xlink:href="#Gradiente_sem_nome_146"/><linearGradient id="Gradiente_sem_nome_146-3" x1="8.58" y1="695.2" x2="23.01" y2="695.2" xlink:href="#Gradiente_sem_nome_146"/><linearGradient id="Gradiente_sem_nome_146-4" x1="-15.98" y1="695.2" x2="68.38" y2="695.2" xlink:href="#Gradiente_sem_nome_146"/><linearGradient id="Gradiente_sem_nome_146-5" x1="-40.42" y1="728.72" x2="23.49" y2="728.72" xlink:href="#Gradiente_sem_nome_146"/><linearGradient id="Gradiente_sem_nome_146-6" x1="-15.98" y1="728.72" x2="68.38" y2="728.72" xlink:href="#Gradiente_sem_nome_146"/><linearGradient id="Gradiente_sem_nome_146-7" x1="175.24" y1="321.15" x2="196.52" y2="358.01" xlink:href="#Gradiente_sem_nome_146"/><linearGradient id="Gradiente_sem_nome_146-8" x1="162.24" y1="355.01" x2="193.6" y2="409.33" xlink:href="#Gradiente_sem_nome_146"/><linearGradient id="Gradiente_sem_nome_146-9" x1="179.69" y1="318.58" x2="200.99" y2="355.47" xlink:href="#Gradiente_sem_nome_146"/><linearGradient id="Gradiente_sem_nome_146-10" x1="191.1" y1="338.35" x2="222.46" y2="392.67" xlink:href="#Gradiente_sem_nome_146"/><linearGradient id="Gradiente_sem_nome_146-11" x1="170.7" y1="323.77" x2="192" y2="360.66" xlink:href="#Gradiente_sem_nome_146"/><linearGradient id="Gradiente_sem_nome_146-12" x1="182.12" y1="343.54" x2="213.48" y2="397.86" xlink:href="#Gradiente_sem_nome_146"/><linearGradient id="Gradiente_sem_nome_161" x1="196.44" y1="908.9" x2="222.59" y2="908.9" gradientTransform="matrix(-1, 0, 0, 1, 236.11, 0)" gradientUnits="userSpaceOnUse"><stop offset="0" stop-color="#1c3bb1"/><stop offset="1" stop-color="#698cfe"/></linearGradient><linearGradient id="Gradiente_sem_nome_161-2" x1="151.75" y1="980.25" x2="236.11" y2="980.25" xlink:href="#Gradiente_sem_nome_161"/><linearGradient id="Gradiente_sem_nome_139" x1="196.44" y1="916.28" x2="222.59" y2="916.28" gradientTransform="matrix(-1, 0, 0, 1, 236.11, 0)" gradientUnits="userSpaceOnUse"><stop offset="0" stop-color="#112a93"/><stop offset="1" stop-color="#8fb4ff"/></linearGradient><linearGradient id="Gradiente_sem_nome_139-2" x1="151.75" y1="916.28" x2="236.11" y2="916.28" xlink:href="#Gradiente_sem_nome_139"/><linearGradient id="Gradiente_sem_nome_26" x1="96.78" y1="1631.89" x2="96.78" gradientTransform="matrix(-1, 0, 0, 1, 236.11, 0)" gradientUnits="userSpaceOnUse"><stop offset="0.4" stop-color="#698cff"/><stop offset="0.52" stop-color="#6d90ff"/><stop offset="0.64" stop-color="#7a9aff"/><stop offset="0.77" stop-color="#90acff"/><stop offset="0.89" stop-color="#aec4ff"/><stop offset="1" stop-color="#cdf"/></linearGradient><linearGradient id="Gradiente_sem_nome_146-13" x1="8.58" y1="683.51" x2="23.01" y2="683.51" xlink:href="#Gradiente_sem_nome_146"/><linearGradient id="Gradiente_sem_nome_146-14" x1="-40.42" y1="725.68" x2="23.49" y2="725.68" xlink:href="#Gradiente_sem_nome_146"/><linearGradient id="Gradiente_sem_nome_164" x1="-15.98" y1="713.72" x2="68.38" y2="713.72" gradientTransform="matrix(-1, 0, 0, 1, 236.11, 0)" gradientUnits="userSpaceOnUse"><stop offset="0" stop-color="#698cfe"/><stop offset="1" stop-color="#1c3bb1"/></linearGradient><linearGradient id="Gradiente_sem_nome_146-15" x1="128.48" y1="374.5" x2="159.84" y2="428.82" xlink:href="#Gradiente_sem_nome_146"/><linearGradient id="Gradiente_sem_nome_165" x1="151.5" y1="1631.89" x2="151.5" gradientTransform="matrix(-1, 0, 0, 1, 236.11, 0)" gradientUnits="userSpaceOnUse"><stop offset="0.4" stop-color="#8fb4ff"/><stop offset="0.55" stop-color="#93b7ff"/><stop offset="0.71" stop-color="#a0c0ff"/><stop offset="0.87" stop-color="#b6ceff"/><stop offset="1" stop-color="#cdf"/></linearGradient><linearGradient id="Gradiente_sem_nome_139-3" x1="151.75" y1="1034.11" x2="236.11" y2="1034.11" xlink:href="#Gradiente_sem_nome_139"/><linearGradient id="Gradiente_sem_nome_165-2" x1="152.6" y1="1631.89" x2="152.6" y2="0" xlink:href="#Gradiente_sem_nome_165"/></defs><g id="Camada_2" data-name="Camada 2"><g id="Camada_5" data-name="Camada 5"><path d="M39.9,347.22l4.21,13.4A130,130,0,0,1,39.9,347.22Z" style="fill:none"/><path d="M215.64,710.34l10.75-15.1A96.74,96.74,0,0,1,215.64,710.34Z" style="fill:none"/><path d="M215.62,710.36h0l0,0Z" style="fill:url(#Gradiente_sem_nome_146)"/><path d="M215.62,710.36h0l0,0Z" style="fill:url(#Gradiente_sem_nome_146-2)"/><path d="M226.39,695.24a.16.16,0,0,1,0-.07v0Z" style="fill:url(#Gradiente_sem_nome_146-3)"/><path d="M226.39,695.24a.16.16,0,0,1,0-.07v0Z" style="fill:url(#Gradiente_sem_nome_146-4)"/><path d="M216.72,733.64l7.59-9.83Q220.74,728.9,216.72,733.64Z" style="fill:url(#Gradiente_sem_nome_146-5)"/><path d="M216.72,733.64l7.59-9.83Q220.74,728.9,216.72,733.64Z" style="fill:url(#Gradiente_sem_nome_146-6)"/><path d="M39.9,347.22v0c0-8.47,10.85-24.26,22.81-25-6.94,13-3.2,27.7-19.56,35.33l1,3.08h0Z" style="fill:url(#Gradiente_sem_nome_146-7)"/><path d="M83.93,433.25c-31-27.45-43.69-47.52-54.29-97.31L37,333.71c.85,4.79,1.83,9.27,2.92,13.47h0v0a130,130,0,0,0,4.21,13.4v0c8.9,23.56,22.69,36.16,40.16,43.87l0,21Z" style="fill:url(#Gradiente_sem_nome_146-8)"/><path d="M39.89,347.19h0v0Z" style="fill:url(#Gradiente_sem_nome_146-9)"/><path d="M39.89,347.19h0v0Z" style="fill:url(#Gradiente_sem_nome_146-10)"/><polygon points="44.11 360.62 44.11 360.62 44.12 360.67 44.11 360.62" style="fill:url(#Gradiente_sem_nome_146-11)"/><polygon points="44.11 360.62 44.11 360.62 44.12 360.67 44.11 360.62" style="fill:url(#Gradiente_sem_nome_146-12)"/><path d="M39.67,885.55C36.33,910,29.14,925,17.74,932.26l-4.21-16v0C19.65,900.23,29.06,891.55,39.67,885.55Z" style="fill:url(#Gradiente_sem_nome_161)"/><path d="M0,907.83l11.17-3.39q1.1,6.12,2.35,11.82h0v0c12.15,55.05,36.41,81.15,69.22,95.78l-.11,44C35.42,1014.26,16.14,983.67,0,907.83Z" style="fill:url(#Gradiente_sem_nome_161-2)"/><path d="M13.52,916.26h0v0Z" style="fill:url(#Gradiente_sem_nome_139)"/><path d="M13.52,916.26h0v0Z" style="fill:url(#Gradiente_sem_nome_139-2)"/><path d="M84.36,1012.8c-.54-.23-1.07-.48-1.61-.72l1.47-586.56L85,404.81l-.72-.32L85.28,0l68,14.65L173,738.55c-1.75.65-3.52,1.29-5.32,1.89l1.63,33.5,4.57-3.17,23.52,861.12H81.21l1.43-575.84.1.09Z" style="fill:url(#Gradiente_sem_nome_26)"/><path d="M215.64,710.34l0,0c-4.86-17.83-2.31-30,4.28-53.69,7,16.22,9.19,23.52,6.53,38.5a.16.16,0,0,0,0,.07Z" style="fill:url(#Gradiente_sem_nome_146-13)"/><path d="M224.35,723.75h0c19.83-20.14,32.72-7,52.18-8.45-21.88,23.05-36.35,22.26-63.91,23.66l4.1-5.32q4-4.75,7.59-9.83Z" style="fill:url(#Gradiente_sem_nome_146-14)"/><path d="M215.62,710.36h0l0,0a96.74,96.74,0,0,0,10.75-15.1l0,0v0c6.11-10.57,11-23.23,14.48-38.5l11.17,2.62c-7.66,27.84-16,47.78-27.77,64.52l-7.59,9.83c-11,13.05-24.77,24.52-42.8,37.13L173,738.55C189.74,732.31,204.1,723.55,215.62,710.36Z" style="fill:url(#Gradiente_sem_nome_164)"/><path d="M167.72,740.44c1.8-.6,3.57-1.24,5.32-1.89l.88,32.22-4.57,3.17Z" style="fill:#698cff"/><path d="M84.22,425.52l0-21,.72.32Z" style="fill:url(#Gradiente_sem_nome_146-15)"/><path d="M84.22,425.52l0-21,.72.32Z" style="fill:url(#Gradiente_sem_nome_165)"/><path d="M84.36,1012.8l-1.62,43.34-.1-.09.11-44C83.29,1012.32,83.82,1012.57,84.36,1012.8Z" style="fill:url(#Gradiente_sem_nome_139-3)"/><path d="M84.36,1012.8l-1.62,43.34-.1-.09.11-44C83.29,1012.32,83.82,1012.57,84.36,1012.8Z" style="fill:url(#Gradiente_sem_nome_165-2)"/></g></g></svg>